<svg xmlns="http://www.w3.org/2000/svg" width="80.544" height="67.119" viewBox="0 0 80.544 67.119">
  <g id="cargar" transform="translate(-15.999 -56)">
    <path id="Trazado_1092036" data-name="Trazado 1092036" d="M95.472,64.082,56.543,56.028a1.344,1.344,0,0,0-.544,0L17.069,64.082a1.342,1.342,0,0,0-.631,2.308l4.93,4.482V88.387a5.37,5.37,0,0,0,0,10.4v4.2a1.342,1.342,0,1,0,2.685,0v-4.2a5.37,5.37,0,0,0,0-10.4V73.313l6.712,6.1v6.118h.007a13.4,13.4,0,0,0,2.687,18.793H32.108a4.024,4.024,0,0,0-3,6.712,4.018,4.018,0,0,0,0,5.37,4.024,4.024,0,0,0,3,6.712h56.38a1.342,1.342,0,0,0,1.342-1.342V72.093l6.273-5.7a1.342,1.342,0,0,0-.631-2.308ZM25.4,93.587A2.685,2.685,0,1,1,22.711,90.9,2.685,2.685,0,0,1,25.4,93.587Zm5.37,20.136a1.344,1.344,0,0,1,1.342-1.342H50.9a1.342,1.342,0,0,1,0,2.685H32.108A1.344,1.344,0,0,1,30.765,113.723ZM33.45,79.808c3.013-.91,12.974-3.672,22.821-3.672a82.463,82.463,0,0,1,20.136,2.911v3.8H49.559v.007a13.4,13.4,0,0,0-16.109,0ZM76.406,93.587h-5.37V90.9h5.37ZM68.352,109.7h-5.37v-8.054h5.37Zm-5.37-10.739V90.9h5.37v8.054ZM54.658,90.9H60.3v2.685h-5.37A13.432,13.432,0,0,0,54.658,90.9Zm13.694-5.37v2.685h-5.37V85.533Zm8.054,0v2.685h-5.37V85.533Zm-16.109,0v2.685H53.8a13.424,13.424,0,0,0-1.568-2.685Zm-5.64,10.739H60.3v2.685H53.8A13.3,13.3,0,0,0,54.658,96.272Zm5.64,5.37v2.685H49.549a13.543,13.543,0,0,0,2.694-2.694v.009Zm0,5.37V109.7H54.7a4.018,4.018,0,0,0,0-2.685Zm0,8.054H54.7a4.018,4.018,0,0,0,0-2.685h5.6Zm-5.6,2.685h5.6v2.685H54.7A4.018,4.018,0,0,0,54.7,117.75Zm8.285-5.37h5.37v8.054h-5.37Zm8.054,5.37h5.37v2.685h-5.37Zm0-2.685V112.38h5.37v2.685Zm0-5.37v-2.685h5.37V109.7Zm0-5.37v-2.685h5.37v2.685Zm0-5.37V96.272h5.37v2.685Zm8.054-5.37h8.054v2.685H79.091Zm0-2.685V76.4a8.068,8.068,0,0,0,8.054,0V90.9Zm4.027-16.109c-2.183,0-4.027-1.229-4.027-2.685s1.844-2.685,4.027-2.685,4.027,1.229,4.027,2.685S85.3,74.794,83.118,74.794Zm-6.712,1.478a84.375,84.375,0,0,0-20.136-2.821A86.919,86.919,0,0,0,33.45,77V73.1c3.014-.91,12.975-3.672,22.821-3.672a82.463,82.463,0,0,1,20.136,2.911ZM30.765,93.587A10.739,10.739,0,1,1,41.5,104.326,10.739,10.739,0,0,1,30.765,93.587Zm1.342,13.424H50.9a1.342,1.342,0,0,1,0,2.685H32.108a1.342,1.342,0,1,1,0-2.685Zm0,13.424a1.342,1.342,0,1,1,0-2.685H50.9a1.342,1.342,0,1,1,0,2.685Zm46.983,0V98.956h8.054v21.478ZM88.867,69.34a7.188,7.188,0,0,0-5.748-2.6,7.026,7.026,0,0,0-6.022,3,85.21,85.21,0,0,0-20.826-3c-12.159,0-24.086,3.929-24.587,4.1a1.342,1.342,0,0,0-.918,1.274v3.677L20.2,66.177l36.075-7.464,36.075,7.464Z" transform="translate(0 0)" fill="#7d8c48"/>
    <path id="Trazado_1092037" data-name="Trazado 1092037" d="M137.4,238.712h-1.342v-2.685h2.685a1.342,1.342,0,1,0,0-2.685h-2.685a1.342,1.342,0,1,0-2.685,0h-1.342a4.027,4.027,0,1,0,0,8.054h1.342v2.685h-2.685a1.342,1.342,0,1,0,0,2.685h2.685a1.342,1.342,0,0,0,2.685,0H137.4a4.027,4.027,0,1,0,0-8.054Zm-5.37,0a1.342,1.342,0,0,1,0-2.685h1.342v2.685Zm5.37,5.37h-1.342V241.4H137.4a1.342,1.342,0,0,1,0,2.685Z" transform="translate(-93.208 -146.467)" fill="#7d8c48"/>
  </g>
</svg>
