<svg xmlns="http://www.w3.org/2000/svg" width="66.529" height="56.554" viewBox="0 0 66.529 56.554">
  <g id="tarifa" transform="translate(0 -38.385)">
    <g id="Grupo_1190660" data-name="Grupo 1190660" transform="translate(0 38.385)">
      <path id="Trazado_1092030" data-name="Trazado 1092030" d="M273.068,124.636a1.3,1.3,0,0,0-1.3-1.3H250.714a1.3,1.3,0,0,0-1.3,1.3v5.2a1.3,1.3,0,0,0,1.3,1.3h21.054a1.3,1.3,0,0,0,1.3-1.3Zm-2.6,3.9H252.014v-2.6h18.456Z" transform="translate(-217.006 -112.298)" fill="#20849e"/>
      <path id="Trazado_1092031" data-name="Trazado 1092031" d="M273.068,211.684a1.3,1.3,0,0,0-1.3-1.3H250.714a1.3,1.3,0,0,0,0,2.6h21.054A1.3,1.3,0,0,0,273.068,211.684Z" transform="translate(-217.006 -188.035)" fill="#20849e"/>
      <path id="Trazado_1092032" data-name="Trazado 1092032" d="M250.714,257.433a1.3,1.3,0,0,0,0,2.6h4.38a1.3,1.3,0,1,0,0-2.6Z" transform="translate(-217.006 -228.97)" fill="#20849e"/>
      <path id="Trazado_1092033" data-name="Trazado 1092033" d="M52.214,106.385A12.214,12.214,0,1,0,64.429,118.6,12.228,12.228,0,0,0,52.214,106.385ZM46.28,126.157a4.309,4.309,0,0,1,4.274-3.812h3.32a4.309,4.309,0,0,1,4.274,3.812,9.584,9.584,0,0,1-11.868,0Zm8.086-8.563a2.152,2.152,0,0,1-4.3,0v-1.238a2.152,2.152,0,0,1,4.3,0Zm5.849,6.331a6.938,6.938,0,0,0-4-3.77,4.722,4.722,0,0,0,.752-2.561v-1.238a4.751,4.751,0,0,0-9.5,0v1.238a4.721,4.721,0,0,0,.752,2.561,6.94,6.94,0,0,0-4,3.77,9.616,9.616,0,1,1,16,0Z" transform="translate(-34.802 -97.549)" fill="#20849e"/>
      <path id="Trazado_1092034" data-name="Trazado 1092034" d="M61.332,69.319V44.882a6.5,6.5,0,0,0-6.5-6.5H39.112a1.3,1.3,0,0,0,0,2.6H54.835a3.9,3.9,0,0,1,3.9,3.9v22.7A14.5,14.5,0,0,0,37.745,77.887H6.5a3.9,3.9,0,0,1-3.9-3.9V44.882a3.9,3.9,0,0,1,3.9-3.9h20.92a1.3,1.3,0,1,0,0-2.6H6.5a6.5,6.5,0,0,0-6.5,6.5V73.989a6.5,6.5,0,0,0,6.5,6.5H37.521A14.5,14.5,0,1,0,61.332,69.319ZM52.025,92.34A11.906,11.906,0,1,1,63.931,80.434,11.919,11.919,0,0,1,52.025,92.34Z" transform="translate(0 -38.385)" fill="#20849e"/>
      <path id="Trazado_1092035" data-name="Trazado 1092035" d="M369.871,300.272a1.828,1.828,0,0,1,1.957,1.656,1.3,1.3,0,0,0,2.6,0,4.312,4.312,0,0,0-3.256-4.077v-.107a1.3,1.3,0,1,0-2.6,0v.107a4.312,4.312,0,0,0-3.256,4.077,4.418,4.418,0,0,0,4.556,4.254,1.679,1.679,0,1,1-1.957,1.656,1.3,1.3,0,1,0-2.6,0,4.312,4.312,0,0,0,3.259,4.078,1.3,1.3,0,0,0,2.594,0,4.312,4.312,0,0,0,3.259-4.078,4.418,4.418,0,0,0-4.556-4.255,1.679,1.679,0,1,1,0-3.312Z" transform="translate(-317.846 -262.912)" fill="#20849e"/>
      <ellipse id="Elipse_11473" data-name="Elipse 11473" cx="1.5" cy="1" rx="1.5" ry="1" transform="translate(32 0)" fill="#20849e"/>
    </g>
  </g>
</svg>
