<svg xmlns="http://www.w3.org/2000/svg" xmlns:xlink="http://www.w3.org/1999/xlink" width="188" height="215" viewBox="0 0 188 215">
  <defs>
    <clipPath id="clip-path">
      <rect id="Rectángulo_459618" data-name="Rectángulo 459618" width="160.652" height="146.244" fill="none"/>
    </clipPath>
  </defs>
  <g id="Grupo_1190588" data-name="Grupo 1190588" transform="translate(-185.348 -797)">
    <rect id="Rectángulo_459619" data-name="Rectángulo 459619" width="188" height="215" rx="24" transform="translate(185.348 797)" fill="#f4ece4"/>
    <g id="Grupo_1190586" data-name="Grupo 1190586" transform="translate(199.021 823.301)">
      <g id="Grupo_1190585" data-name="Grupo 1190585" transform="translate(0 0)" clip-path="url(#clip-path)">
        <path id="Trazado_1091874" data-name="Trazado 1091874" d="M3.226,27.926a18.486,18.486,0,0,1,1.113,2.23s-.891,1.225-.39,2.173,3.01,3.619,4.069,3.787,4.121-4.345,4.121-4.345L7.571,23.914Z" transform="translate(5.108 37.869)" fill="#ffa77b"/>
        <path id="Trazado_1091875" data-name="Trazado 1091875" d="M19.121.011c-.669-.209-7.562,2.506-7.939,2.8s-.083,5.722.333,6.6l9.946-3.968S19.79.22,19.121.011" transform="translate(17.431 0.001)" fill="#9e2d48"/>
        <path id="Trazado_1091876" data-name="Trazado 1091876" d="M23.027,3.869a2.1,2.1,0,0,0-1.338-2.591c-1.878-.625-3.968,1.3-5.1,1.462A13.71,13.71,0,0,0,11.327,5.5c-1.253,1.212.044,4.178.127,7.812l11.282-1.922c1.336-3.092.292-7.521.292-7.521" transform="translate(17.076 1.827)" fill="#59241b"/>
        <path id="Trazado_1091877" data-name="Trazado 1091877" d="M47.014,2.716A4.908,4.908,0,0,0,42,7.508c0,2.645,2.245,3.343,5.015,3.343s5.015-.7,5.015-3.343a4.908,4.908,0,0,0-5.015-4.792m0,6.479c-1.814,0-3.281.044-3.281-1.687a3.284,3.284,0,0,1,6.562,0c0,1.731-1.467,1.687-3.281,1.687" transform="translate(66.505 4.302)" fill="#e5842c"/>
        <path id="Trazado_1091878" data-name="Trazado 1091878" d="M36.676,12.715a22.007,22.007,0,0,0-6.826-.752c-1.393.279-5.126,3.676-5.126,3.676l3.511,8.916s2-2.118,2.617-2.118a23.757,23.757,0,0,0,4.779-.9c.891-.39,1.491-8.484,1.044-8.817" transform="translate(39.152 18.843)" fill="#ed8c62"/>
        <path id="Trazado_1091879" data-name="Trazado 1091879" d="M12.319,8.049c-1.338-.92-2.111-2.509-1.5-3.343.333-.46,1.754.5,1.754.5Z" transform="translate(16.794 7.256)" fill="#dd704a"/>
        <path id="Trazado_1091880" data-name="Trazado 1091880" d="M15.775,7.877c1.093-1.02,1.648-2.78,1.062-3.707-.326-.509-1.488.558-1.488.558Z" transform="translate(24.305 6.386)" fill="#dd704a"/>
        <path id="Trazado_1091881" data-name="Trazado 1091881" d="M7.825,51.4S-.533,33.175.028,30.785,18.195,10.605,23.5,10.122s-7.283,32.754-7.283,32.754Z" transform="translate(0.001 16.021)" fill="#9e2d48"/>
        <path id="Trazado_1091882" data-name="Trazado 1091882" d="M12.941,41.067s8.239-21.756,8.575-29.808C14.3,15.976,2.552,28.119,2.1,30.062,1.715,31.687,5.459,40.631,7.892,46.19Z" transform="translate(3.279 17.83)" fill="#821e3b"/>
        <path id="Trazado_1091883" data-name="Trazado 1091883" d="M12.3,21.21,2.406,30.232a13.365,13.365,0,0,0,1.61,3.6l8.394-8.518s.14-.331.382-.917Z" transform="translate(3.81 33.587)" fill="#ea8234"/>
        <path id="Trazado_1091884" data-name="Trazado 1091884" d="M4.016,30.054,6.824,27.2A5.95,5.95,0,0,0,5.54,23.595l-3.134,2.86a13.417,13.417,0,0,0,1.61,3.6" transform="translate(3.81 37.364)" fill="#edac43"/>
        <path id="Trazado_1091885" data-name="Trazado 1091885" d="M8.182,23.933C6.957,22.15,2.945,19.42,2.945,19.42l2.842.726L4.728,18.027l4.178,1.617Z" transform="translate(4.663 28.547)" fill="#6b1532"/>
        <path id="Trazado_1091886" data-name="Trazado 1091886" d="M59.459,40.76c-3.242-1.666-9.469-1.013-9.957-.61s-1.646,7.66-1.646,7.66l2.7,1.847.506-8.1s5.056-.589,6.226.034c1.23.656,2.031,5.472,2.031,5.472l2.033-.837s-1.1-5.056-1.9-5.467" transform="translate(75.781 62.832)" fill="#662237"/>
        <path id="Trazado_1091887" data-name="Trazado 1091887" d="M71.692,42.03C68.638,40.346,49.3,43.578,49.3,43.578L45.73,67.325s21.727-.093,31.309-.137c3.105-3.134,2.47-20.846-5.348-25.158" transform="translate(72.413 65.786)" fill="#913448"/>
        <path id="Trazado_1091888" data-name="Trazado 1091888" d="M58.454,57.652S58.488,47.437,57,41.908a7.427,7.427,0,0,0-2.142-.351c2.79,7.076,2.366,16.263,2.366,16.263Z" transform="translate(86.875 65.806)" fill="#72263a"/>
        <path id="Trazado_1091889" data-name="Trazado 1091889" d="M55.326,49.334c.047-.253.413-1.656.413-1.656s2.292-.07,2.7-.057.643,1.63.643,1.63Z" transform="translate(87.608 75.406)" fill="#b78844"/>
        <path id="Trazado_1091890" data-name="Trazado 1091890" d="M61.427,59.982c-1.338-9.321,1.839-17.485,7.092-18.239A6.361,6.361,0,0,1,72.8,42.768a8.265,8.265,0,0,0-1.108-.739C68.638,40.348,49.3,43.577,49.3,43.577L45.73,67.327l17.72-.078a28.132,28.132,0,0,1-2.023-7.267" transform="translate(72.413 65.786)" fill="#662237"/>
        <path id="Trazado_1091891" data-name="Trazado 1091891" d="M48.725,42.939c.16,2.271,3.41,5,8.285,7.159,1.093-4.619,3.537-7.89,6.769-8.355a6.361,6.361,0,0,1,4.281,1.026,8.266,8.266,0,0,0-1.108-.739c-2.149-1.183-12.365.065-18.227.909" transform="translate(77.156 65.786)" fill="#72263a"/>
        <path id="Trazado_1091892" data-name="Trazado 1091892" d="M38.568,125.15H36.605V21.232a15.916,15.916,0,0,1,15.9-15.9H82.839a15.918,15.918,0,0,1,15.9,15.9V124.649H96.775V21.232A13.952,13.952,0,0,0,82.839,7.3H52.5A13.952,13.952,0,0,0,38.568,21.232Z" transform="translate(57.964 8.446)" fill="#e5842c"/>
        <path id="Trazado_1091893" data-name="Trazado 1091893" d="M49.415,33.475c-3.464-1.979-11.254-1.449-11.812-1s-.78,6.686-.78,6.686L39.5,40.384l.114-6.35s4.679-.558,5.9.111,1,4.568,1,4.568l3.343-.444s.333-4.345-.447-4.792" transform="translate(58.309 50.761)" fill="#472f34"/>
        <path id="Trazado_1091894" data-name="Trazado 1091894" d="M48.69,37.988s.333-4.345-.447-4.792a8.337,8.337,0,0,0-1.8-.726c-3.723-.731-8.409-.338-8.836,0-.558.447-.78,6.686-.78,6.686l1.509.692.106-6.1s4.681-.558,5.906.111l0,0a3.305,3.305,0,0,1,1.168.276c.971.53,1.033,3.1,1.015,4.131Z" transform="translate(58.311 50.762)" fill="#5e3e44"/>
        <path id="Trazado_1091895" data-name="Trazado 1091895" d="M73.862,38.091c-.333-.558-5.795-3.232-9.249-4.123s-30.529,1.672-32.09,3.454S30.407,76.645,34.753,80.1l39.109-.111c4.012-3.01.333-41.338,0-41.9" transform="translate(49.686 53.5)" fill="#5e3e44"/>
        <path id="Trazado_1091896" data-name="Trazado 1091896" d="M61.973,50.027A37.865,37.865,0,0,0,63.924,33.86c-5.4-.53-29.919,1.868-31.4,3.563-1.116,1.276-1.721,20.81-.38,33.084A11.3,11.3,0,0,0,35.539,72.1c9.4,2.6,21.389-6.937,26.434-22.071" transform="translate(49.685 53.5)" fill="#724750"/>
        <path id="Trazado_1091897" data-name="Trazado 1091897" d="M35.459,75.887l-.044-.036c-1.077-.891-1.881-4.172-2.387-9.755-.946-10.468-.509-26.873.478-28.044,1.315-1.56,21.65-3.573,26.491-3.214l.124.008.023.124A99.944,99.944,0,0,1,61.88,53.876a96.2,96.2,0,0,1-2.364,21.815l-.028.127Zm22.962-40.77c-6.8,0-23.618,1.9-24.665,3.147-.85,1.008-1.385,16.95-.4,27.8.607,6.7,1.537,8.869,2.224,9.494l23.652-.072a96.2,96.2,0,0,0,2.325-21.614,100.073,100.073,0,0,0-1.705-18.72c-.4-.026-.884-.039-1.429-.039" transform="translate(51.468 55.1)" fill="#472f34"/>
        <path id="Trazado_1091898" data-name="Trazado 1091898" d="M53.524,37.986c-.333-.558-5.795-3.232-9.249-4.123l-.054-.01c.739,5.529,3.452,36.321,1.142,46.053l8.161-.023c4.012-3.01.333-41.338,0-41.9" transform="translate(70.024 53.606)" fill="#472f34"/>
        <path id="Trazado_1091899" data-name="Trazado 1091899" d="M48.862,36.111a6.618,6.618,0,0,0-1.7-1.075,12,12,0,0,1,.106,1.914,2.2,2.2,0,0,1,.757.553,10.4,10.4,0,0,1,.14,1.108c.344.028.687.059,1.039.09a23.14,23.14,0,0,0-.344-2.591" transform="translate(74.685 55.481)" fill="#916131"/>
        <path id="Trazado_1091900" data-name="Trazado 1091900" d="M46.208,36.414c.62.2,1.328.465,2.044.747-.072-.628-.158-1.31-.258-2.013a30.492,30.492,0,0,0-3.718-1.284l-.054-.013c.15,1.126.382,3.3.638,6.133q.794.027,1.651.07c-.137-1.635-.256-2.9-.341-3.65l.039.01" transform="translate(70.024 53.604)" fill="#916131"/>
        <path id="Trazado_1091901" data-name="Trazado 1091901" d="M47.83,53.562l-1.222.005a40.429,40.429,0,0,0,.437-4.325l-1.687.013a40.391,40.391,0,0,1-.695,6.278l2.87-.008c.093-.576.2-1.25.3-1.963" transform="translate(70.724 77.976)" fill="#916131"/>
        <path id="Trazado_1091902" data-name="Trazado 1091902" d="M49.629,49.318c-.183,2.137-.5,3.63-.992,4.108l-1.1.005a17.326,17.326,0,0,1-.53,1.966l2.1-.005c.858-.646,1.364-2.909,1.625-6.074Z" transform="translate(74.438 78.096)" fill="#916131"/>
        <path id="Trazado_1091903" data-name="Trazado 1091903" d="M32.616,40.428a8.259,8.259,0,0,1,.594-2.953,6.538,6.538,0,0,1,2.614-.894c.052-.713.106-1.328.165-1.832-2.01.39-3.379.783-3.694,1.144s-.576,2.093-.775,4.679c.338-.049.705-.1,1.1-.145" transform="translate(49.913 55.026)" fill="#a07b40"/>
        <path id="Trazado_1091904" data-name="Trazado 1091904" d="M42.971,35.666a9.62,9.62,0,0,1,1.749.15c.111.842.274,2.33.457,4.26.674-.008,1.343.018,1.9.023a36.071,36.071,0,0,0-.685-6.144,18.091,18.091,0,0,0-3.55-.163q.058.86.124,1.873" transform="translate(67.848 53.499)" fill="#a07b40"/>
        <path id="Trazado_1091905" data-name="Trazado 1091905" d="M36.087,53.688l-1.341,0c-.723-.574-1.3-2.173-1.746-4.413l-1.155,0c.519,3.211,1.227,5.539,2.165,6.286l2.385-.008c-.109-.566-.212-1.194-.307-1.87" transform="translate(50.426 78.033)" fill="#a07b40"/>
        <path id="Trazado_1091906" data-name="Trazado 1091906" d="M45.77,49.26a29.8,29.8,0,0,1-.607,4.384l-1.806.005q-.054.98-.127,1.873L47,55.512a38.783,38.783,0,0,0,.69-6.255Z" transform="translate(68.454 77.999)" fill="#a07b40"/>
        <path id="Trazado_1091907" data-name="Trazado 1091907" d="M60.485,52.7l.5,6.74H58.925L57.31,52.7Z" transform="translate(90.75 83.457)" fill="#59463e"/>
        <path id="Trazado_1091908" data-name="Trazado 1091908" d="M38.619,52.7l.5,6.74H37.058L35.444,52.7Z" transform="translate(56.125 83.457)" fill="#59463e"/>
        <path id="Trazado_1091909" data-name="Trazado 1091909" d="M50.134,52.7l-.5,6.74h2.062l1.615-6.74Z" transform="translate(78.594 83.457)" fill="#dd752f"/>
        <path id="Trazado_1091910" data-name="Trazado 1091910" d="M28.268,52.7l-.5,6.74h2.062l1.615-6.74Z" transform="translate(43.968 83.457)" fill="#dd752f"/>
        <path id="Trazado_1091911" data-name="Trazado 1091911" d="M117.77,51.453H27.848a2.089,2.089,0,0,0,0,4.178H117.77a2.089,2.089,0,1,0,0-4.178" transform="translate(40.792 81.477)" fill="#edac43"/>
        <path id="Trazado_1091912" data-name="Trazado 1091912" d="M29.349,125.15H27.386V21.232a15.918,15.918,0,0,1,15.9-15.9H73.62a15.918,15.918,0,0,1,15.9,15.9V124.649H87.556V21.232A13.952,13.952,0,0,0,73.62,7.3H43.285A13.952,13.952,0,0,0,29.349,21.232Z" transform="translate(43.366 8.446)" fill="#edac43"/>
        <path id="Trazado_1091913" data-name="Trazado 1091913" d="M29.349,12.308a1.4,1.4,0,0,0-.69-.189,1.759,1.759,0,0,0-1.274.664V27.749a1.759,1.759,0,0,0,1.274.664,1.4,1.4,0,0,0,.69-.189Z" transform="translate(43.366 19.192)" fill="#e5842c"/>
        <path id="Trazado_1091914" data-name="Trazado 1091914" d="M46.41,2.716a4.908,4.908,0,0,0-5.015,4.792c0,2.645,2.245,3.343,5.015,3.343s5.015-.7,5.015-3.343A4.908,4.908,0,0,0,46.41,2.716m0,6.479c-1.814,0-3.281.044-3.281-1.687a3.284,3.284,0,0,1,6.562,0c0,1.731-1.467,1.687-3.281,1.687" transform="translate(65.549 4.302)" fill="#edac43"/>
        <path id="Trazado_1091915" data-name="Trazado 1091915" d="M32.825,57.348a3.485,3.485,0,0,0-3.273-3.286,2.869,2.869,0,0,0-2.744,3.286,3.485,3.485,0,0,0,3.273,3.286,2.869,2.869,0,0,0,2.744-3.286" transform="translate(42.432 85.608)" fill="#59463e"/>
        <path id="Trazado_1091916" data-name="Trazado 1091916" d="M41.581,57.348a3.485,3.485,0,0,0-3.273-3.286,2.869,2.869,0,0,0-2.744,3.286,3.485,3.485,0,0,0,3.273,3.286,2.869,2.869,0,0,0,2.744-3.286" transform="translate(56.297 85.608)" fill="#59463e"/>
        <path id="Trazado_1091917" data-name="Trazado 1091917" d="M54.778,57.348a3.485,3.485,0,0,0-3.273-3.286,2.869,2.869,0,0,0-2.744,3.286,3.485,3.485,0,0,0,3.273,3.286,2.869,2.869,0,0,0,2.744-3.286" transform="translate(77.194 85.608)" fill="#59463e"/>
        <path id="Trazado_1091918" data-name="Trazado 1091918" d="M63.536,57.348a3.487,3.487,0,0,0-3.276-3.286,2.869,2.869,0,0,0-2.744,3.286,3.485,3.485,0,0,0,3.276,3.286,2.871,2.871,0,0,0,2.744-3.286" transform="translate(91.058 85.608)" fill="#59463e"/>
        <path id="Trazado_1091919" data-name="Trazado 1091919" d="M30.194,56.49A1.892,1.892,0,0,0,28.538,54.6a1.6,1.6,0,0,0-1.387,1.886,1.888,1.888,0,0,0,1.656,1.886,1.6,1.6,0,0,0,1.387-1.886" transform="translate(42.983 86.466)" fill="#b5a38c"/>
        <path id="Trazado_1091920" data-name="Trazado 1091920" d="M52.125,56.49A1.892,1.892,0,0,0,50.469,54.6a1.6,1.6,0,0,0-1.387,1.886,1.888,1.888,0,0,0,1.656,1.886,1.6,1.6,0,0,0,1.387-1.886" transform="translate(77.711 86.466)" fill="#b5a38c"/>
        <path id="Trazado_1091921" data-name="Trazado 1091921" d="M33.282,104.539C29.048,96.85,4.311,43.367,5.091,30.552S21.917,24.2,21.917,24.2L33.282,62.531l3.565,42.119Z" transform="translate(8.033 35.744)" fill="#4c2b35"/>
        <path id="Trazado_1091922" data-name="Trazado 1091922" d="M8.346,28.83c-.31,2.948,4.17,20.469,11.53,41.772,4.63,13.393,7.818,25.53,8.859,32.958l2.953.09L28.12,61.532,16.756,23.2S8.734,25.1,8.346,28.83" transform="translate(13.192 36.743)" fill="#3f232c"/>
        <path id="Trazado_1091923" data-name="Trazado 1091923" d="M26.093,61.662H12c-.444-1.951.222-2,2.118-1.839s5.459-2.062,6.128-2.338,1.393-3.511,1.393-3.511l3.9-.558,1.116,1.951Z" transform="translate(18.788 84.584)" fill="#ccb196"/>
        <path id="Trazado_1091924" data-name="Trazado 1091924" d="M37.783,27.2c-.333,13.928-2.674,76.771-2.674,76.771l-3.01,1.227c-6.35-19.278-16.713-56.382-16.713-56.382L11.9,47.921S6.585,27.865,8.479,23.52s29.3,3.676,29.3,3.676" transform="translate(12.781 35.202)" fill="#4c2b35"/>
        <path id="Trazado_1091925" data-name="Trazado 1091925" d="M17.661,32.711c9.249,3.955,16.108,14.76,21.619,38.429.431,1.86.822,3.7,1.165,5.521.679-18.792,1.488-41.71,1.674-49.466,0,0-27.411-8.022-29.3-3.676-.716,1.638-8.11,9.59-7.438,13.62.718-.682,6.833-6.758,12.285-4.428" transform="translate(8.445 35.2)" fill="#3f232c"/>
        <path id="Trazado_1091926" data-name="Trazado 1091926" d="M18.736,91.78c-.442-21.417-.778-61.658-.78-62.063l.328,0c0,.406.338,40.644.78,62.058Z" transform="translate(28.433 47.053)" fill="#e58833"/>
        <path id="Trazado_1091927" data-name="Trazado 1091927" d="M43.379,68.624c-7.355-6.686-20.807-20.389-29.527-18.831-3.121.558-6.686,7.577-7.244,8.247-4.9-14.933-.78-37.329,3.9-42.119,0,0,10.027-7.244,17.715-7.466s17.829,9.027,17.829,9.027Z" transform="translate(6.963 13.383)" fill="#9e2d48"/>
        <path id="Trazado_1091928" data-name="Trazado 1091928" d="M25.24,15.085a48.806,48.806,0,0,0,8.877-.765c-3.658-2.656-9.215-6-13.876-5.865-3.506.1-7.495,1.661-10.8,3.33,2.439,1.93,8.59,3.3,15.8,3.3" transform="translate(14.947 13.384)" fill="#821e3b"/>
        <path id="Trazado_1091929" data-name="Trazado 1091929" d="M23.212,13.528C16.887,14.7,14.281,29.279,17.389,46.1a78.211,78.211,0,0,0,2.516,10c1.839,1.695,3.526,3.286,4.978,4.6L27.3,14.525a5.653,5.653,0,0,0-4.085-1" transform="translate(25.459 21.304)" fill="#821e3b"/>
        <path id="Trazado_1091930" data-name="Trazado 1091930" d="M17.114,29.434C22.144,45.178,25.8,46.816,27.7,47.485s6.128.333,6.8-.447c.537-.625,6.094-13.158,8.27-18.087A4.33,4.33,0,0,0,42.59,25.1a48.97,48.97,0,0,1-4.506-9.817.961.961,0,0,0-1.705-.3c-1.349,1.876-3.542,4.963-5.226,7.544-.3.468-2.9-9.554-4.345-10.559S13.66,18.625,17.114,29.434" transform="translate(26.095 18.811)" fill="#9e2d48"/>
        <path id="Trazado_1091931" data-name="Trazado 1091931" d="M41.311,18.616c-.486-.876-.969-1.757-1.436-2.643-.413,10.861-5.88,19.456-12.564,19.456-4.09,0-7.725-3.222-10.024-8.208C21.573,39.007,24.712,40.4,26.42,41c1.894.669,6.128.333,6.8-.447.537-.625,6.094-13.158,8.27-18.087a4.338,4.338,0,0,0-.176-3.852" transform="translate(27.374 25.294)" fill="#8e2543"/>
        <path id="Trazado_1091932" data-name="Trazado 1091932" d="M11.025,12.025c.119-.829.834-4.444.834-4.444l10.476-.444.682,4.387c-4.847,4.764-12.483,3.906-11.993.5" transform="translate(17.422 11.303)" fill="#e58833"/>
        <path id="Trazado_1091933" data-name="Trazado 1091933" d="M11.637,13.269a13.629,13.629,0,0,1,1.217-5.976l-.995.041s-.716,3.614-.834,4.444a1.921,1.921,0,0,0,.615,1.728c0-.08,0-.158,0-.238" transform="translate(17.422 11.55)" fill="#e06a2f"/>
        <path id="Trazado_1091934" data-name="Trazado 1091934" d="M14.862,13.516c0,.214-.005.424-.013.633A11.671,11.671,0,0,0,19,11.524l-.682-4.387-4.777.2a13.308,13.308,0,0,1,1.323,6.177" transform="translate(21.439 11.303)" fill="#e06a2f"/>
        <path id="Trazado_1091935" data-name="Trazado 1091935" d="M11.406,16.578c1.108,1.346,5.224,1.589,6.058,1.589s5.015-1.38,5.224-2.131.168-9.443.083-10.321S22.4,1.744,19.011,1.7s-7.4,3.219-7.732,5.852-.457,8.314.127,9.024" transform="translate(17.416 2.696)" fill="#ffa77b"/>
        <path id="Trazado_1091936" data-name="Trazado 1091936" d="M18.124,9.256c-.129.129-3.232,3.224-6.048,9.755-2.547,5.9-5.291,15.814-4.09,29.71a2.958,2.958,0,0,1,.641-.2C6.385,22.111,18.444,9.876,18.568,9.752Z" transform="translate(12.186 14.658)" fill="#edac43"/>
        <path id="Trazado_1091937" data-name="Trazado 1091937" d="M12.333,24.2c-2.844.481-6.038,5.738-7.252,7.624q.209.74.444,1.457c.555-.669,4.121-7.688,7.242-8.247,8.722-1.555,22.174,12.148,29.527,18.831l.1-1.912c-8-6.968-21.288-19.232-30.062-17.754" transform="translate(8.046 38.136)" fill="#edac43"/>
        <path id="Trazado_1091938" data-name="Trazado 1091938" d="M26.322,17.175c-.328.488-.648.971-.953,1.436-.14.214-.793-1.863-1.6-4.26-2.891,6.5-3.638,15.124-3.638,15.124a120.994,120.994,0,0,1,6.19-12.3" transform="translate(31.879 22.726)" fill="#8e2543"/>
        <path id="Trazado_1091939" data-name="Trazado 1091939" d="M25.156,15.379a6.364,6.364,0,0,1,4.258-3.886,5.759,5.759,0,0,1,2.943.793c.439.377,1.116,5.557.6,5.934s-1.912.543-2.111-.127a34.766,34.766,0,0,1-.434-3.467l-.558-.083s.318,2.966-1.431,3.676-3.741-1.63-3.263-2.842" transform="translate(39.72 18.187)" fill="#ffa77b"/>
        <path id="Trazado_1091940" data-name="Trazado 1091940" d="M25.476,13.222c-.535.741-1.232,1.715-1.989,2.79a32.349,32.349,0,0,0,2.08,5.769,28.144,28.144,0,0,0,5.2,7.722c.372-.842.705-1.594.977-2.214a4.326,4.326,0,0,0-.039-3.583c-1.925-4.128-3.32-7.159-4.552-10.277a.964.964,0,0,0-1.677-.207" transform="translate(37.192 20.305)" fill="#edac43"/>
        <path id="Trazado_1091941" data-name="Trazado 1091941" d="M30.212,21.2C29,18.6,28,16.431,27.114,14.406c-.3,3.012-1.372,5.3-2.684,5.591a27.711,27.711,0,0,0,4.841,7c.375-.842.705-1.6.979-2.214a4.336,4.336,0,0,0-.039-3.583" transform="translate(38.685 22.813)" fill="#e58833"/>
        <path id="Trazado_1091942" data-name="Trazado 1091942" d="M28.51,61.627H17.424A9.837,9.837,0,0,1,17.814,58L17.2,54.5l3.511-1.059s3.064,4.178,3.454,4.736,3.4,1.281,3.844,1.672.5,1.783.5,1.783" transform="translate(27.234 84.618)" fill="#d8c3ab"/>
        <path id="Trazado_1091943" data-name="Trazado 1091943" d="M8.962,33.62,13.809,35.4l3.79-4.345-4.792,2.674Z" transform="translate(14.191 49.181)" fill="#3f232c"/>
        <path id="Trazado_1091944" data-name="Trazado 1091944" d="M10.822,12.212c.227.07.46.132.7.189a21.289,21.289,0,0,1,2.1-2.648l-.444-.5a21.5,21.5,0,0,0-2.351,2.956" transform="translate(17.137 14.658)" fill="#e58833"/>
        <path id="Trazado_1091945" data-name="Trazado 1091945" d="M25.508,12.168c-.292-.245-.648-.54-1.059-.865-2.832.189-6.624,2.93-7.66,10.577,2.968-8.151,5.857-9.905,8.719-9.711" transform="translate(26.585 17.899)" fill="#821e3b"/>
        <path id="Trazado_1091946" data-name="Trazado 1091946" d="M8.743,11.5c-.083.085-.165.176-.248.274-.426.32-.863.659-1.3,1.013A20.186,20.186,0,0,0,5.511,18.8a29.879,29.879,0,0,1,3.6-7.557c-.235.163-.367.258-.367.258" transform="translate(8.727 17.803)" fill="#821e3b"/>
        <path id="Trazado_1091947" data-name="Trazado 1091947" d="M31.843,14.857c-1.206.354-3.216.628-3.676-.041s-.46-1.839.083-2.173,3.134-.752,3.762-.168.543,2.173-.168,2.382" transform="translate(44.071 19.293)" fill="#ffa77b"/>
        <path id="Trazado_1091948" data-name="Trazado 1091948" d="M31.762,16.086c-1.206.354-3.216.628-3.676-.041s-.46-1.839.083-2.173S31.3,13.12,31.93,13.7s.543,2.173-.168,2.382" transform="translate(43.942 21.239)" fill="#ffa77b"/>
        <path id="Trazado_1091949" data-name="Trazado 1091949" d="M31.649,17.38c-1.206.354-3.216.628-3.676-.041s-.46-1.839.083-2.173,3.134-.752,3.762-.168.543,2.173-.168,2.382" transform="translate(43.763 23.288)" fill="#ffa77b"/>
        <path id="Trazado_1091950" data-name="Trazado 1091950" d="M12.157,12.154c.256-.344.276-.765.044-.94s-.633-.041-.891.3-.282.767-.047.943.633.039.894-.3" transform="translate(17.576 17.635)" fill="#edac43"/>
        <path id="Trazado_1091951" data-name="Trazado 1091951" d="M12.42,13.412l-.568,1.672c.664.186,7.2,1.672,7.2,1.672l.568-1.579a50.663,50.663,0,0,0-7.2-1.765" transform="translate(18.768 21.239)" fill="#edac43"/>
        <path id="Trazado_1091952" data-name="Trazado 1091952" d="M57.026,58.006l1.563-.222v-.147c0-.1.013-9.724-1.261-15.553-.044-.026-.085-.052-.129-.075a1.7,1.7,0,0,0-.248-.111c1.238,5.368,1.307,14.333,1.31,15.591l-.891.127c.039-1.377.152-9.448-2.131-16.033-.114-.01-.233-.018-.357-.026C57.406,48.7,57.039,57.709,57.037,57.8Z" transform="translate(86.905 65.806)" fill="#b78844"/>
        <path id="Trazado_1091953" data-name="Trazado 1091953" d="M36.515,51.453a24.7,24.7,0,0,0-5.691,4.178H73.446a12.991,12.991,0,0,0,3.909-4.178Z" transform="translate(48.81 81.477)" fill="#ffc776"/>
        <path id="Trazado_1091954" data-name="Trazado 1091954" d="M13.807,8.338c-.672-.057-.413-1.87-.039-1.829s.54,1.87.039,1.829" transform="translate(21.205 10.306)" fill="#59241b"/>
        <path id="Trazado_1091955" data-name="Trazado 1091955" d="M26.874,20.283a.974.974,0,1,0-.961,1.129,1.057,1.057,0,0,0,.961-1.129" transform="translate(39.511 30.332)" fill="#e58833"/>
        <path id="Trazado_1091956" data-name="Trazado 1091956" d="M26.276,21.577a.974.974,0,1,0-.961,1.129,1.057,1.057,0,0,0,.961-1.129" transform="translate(38.564 32.381)" fill="#e58833"/>
        <path id="Trazado_1091957" data-name="Trazado 1091957" d="M5.006,22.89a.837.837,0,0,0-.814-.858.859.859,0,0,0,0,1.715.837.837,0,0,0,.814-.858" transform="translate(5.346 34.889)" fill="#e58833"/>
        <path id="Trazado_1091958" data-name="Trazado 1091958" d="M4.634,21.952a.837.837,0,0,0-.814-.858.859.859,0,0,0,0,1.715.837.837,0,0,0,.814-.858" transform="translate(4.757 33.403)" fill="#e58833"/>
        <path id="Trazado_1091959" data-name="Trazado 1091959" d="M19.634.265A79.39,79.39,0,0,0,11.018,3.37c-.008.248-.013.527-.008.829,2.6-1.062,6.665-2.591,8.96-3.229-.116-.264-.227-.5-.336-.705" transform="translate(17.431 0.421)" fill="#edac43"/>
        <path id="Trazado_1091960" data-name="Trazado 1091960" d="M12.01,5.389c-.977-.235-.628-1.168.023-1.444s3.6-1.488,3.94-.858a1.15,1.15,0,0,1-.762,1.679c-.78.114-3.2.623-3.2.623" transform="translate(18.057 4.605)" fill="#59241b"/>
        <path id="Trazado_1091961" data-name="Trazado 1091961" d="M17.537,5.284c.858-.264.493-1.183-.111-1.436s-3.32-1.372-3.586-.731a1.206,1.206,0,0,0,.785,1.648c.705.09,2.912.519,2.912.519" transform="translate(21.776 4.627)" fill="#59241b"/>
        <path id="Trazado_1091962" data-name="Trazado 1091962" d="M12.757,6.607c1.232-.765,1.953-.271,2.744-.326a2.34,2.34,0,0,0,.974-.276.422.422,0,0,1,.47.049.28.28,0,0,1-.085.475,4.516,4.516,0,0,1-2.036.075,2.718,2.718,0,0,0-1.839.023Z" transform="translate(20.201 9.432)" fill="#dd704a"/>
        <path id="Trazado_1091963" data-name="Trazado 1091963" d="M12.445,7.979c-.63.005-.222-1.044.088-1.212a16.034,16.034,0,0,1,3.643-1.2c.535.078,2.932,1.354,2.844,1.646s-.134.5-.667.468S16.4,6.441,16.044,6.444s-3.464,1.535-3.6,1.535" transform="translate(19.182 8.808)" fill="#59241b"/>
        <path id="Trazado_1091964" data-name="Trazado 1091964" d="M13.463,3.925c-.028.235-.5,4.25-.2,4.426a3.691,3.691,0,0,0,1.113.233s.674-.233.7-.351-.734-4.395-.734-4.395Z" transform="translate(20.843 6.077)" fill="#ed8c62"/>
        <path id="Trazado_1091965" data-name="Trazado 1091965" d="M15.692,4.821c0-.54-.32-.979-.713-.979s-.716.439-.716.979.32.979.716.979.713-.439.713-.979" transform="translate(22.585 6.085)" fill="#442926"/>
        <path id="Trazado_1091966" data-name="Trazado 1091966" d="M13.574,4.8c0-.54-.32-.979-.713-.979s-.716.439-.716.979.32.979.716.979.713-.439.713-.979" transform="translate(19.232 6.058)" fill="#442926"/>
      </g>
    </g>
  </g>
</svg>
