<svg id="folleto_1_" data-name="folleto (1)" xmlns="http://www.w3.org/2000/svg" width="82.348" height="82.348" viewBox="0 0 82.348 82.348">
  <g id="Grupo_1190629" data-name="Grupo 1190629">
    <g id="Grupo_1190628" data-name="Grupo 1190628">
      <path id="Trazado_1091980" data-name="Trazado 1091980" d="M80.975,0H31.567a1.373,1.373,0,0,0-1.372,1.372v6.21a12.281,12.281,0,0,0-15.166,6.142H1.372A1.373,1.373,0,0,0,0,15.1V80.975a1.373,1.373,0,0,0,1.372,1.372H50.781a1.373,1.373,0,0,0,1.372-1.372V68.623H80.975a1.373,1.373,0,0,0,1.372-1.372V1.372A1.373,1.373,0,0,0,80.975,0ZM32.939,4.039,46.5,13.725H37.125a12.421,12.421,0,0,0-4.186-4.773ZM17.78,14.4a9.6,9.6,0,1,1,13.1,13.13,1.372,1.372,0,0,0-.686,1.187v2.853H27.449V23.9l3.715-3.715-1.941-1.941-3.147,3.147L22.93,18.244l-1.941,1.941L24.7,23.9v7.667H21.959V28.713a1.372,1.372,0,0,0-.686-1.187A9.607,9.607,0,0,1,17.78,14.4ZM28.712,49.409,26.077,52.7l-2.635-3.294Zm-6.753-2.745V39.8H24.7v6.862Zm5.49,0V39.8h2.745v6.862Zm-5.49-9.607V34.312h8.235v2.745ZM49.409,79.6H2.745V16.47h11.3a12.27,12.27,0,0,0,5.171,13V48.036a1.372,1.372,0,0,0,.3.858L25,55.756a1.372,1.372,0,0,0,2.144,0l5.49-6.862a1.372,1.372,0,0,0,.3-.858V29.474a12.27,12.27,0,0,0,5.171-13h11.3ZM79.6,65.878H52.154V15.1a1.346,1.346,0,0,0-.589-1.1l.014-.019L35.849,2.745H79.6Z" fill="#20849e"/>
    </g>
  </g>
  <g id="Grupo_1190631" data-name="Grupo 1190631" transform="translate(56.271 6.862)">
    <g id="Grupo_1190630" data-name="Grupo 1190630">
      <path id="Trazado_1091981" data-name="Trazado 1091981" d="M345.842,40h-16.47A1.373,1.373,0,0,0,328,41.372v8.235a1.373,1.373,0,0,0,1.372,1.372h16.47a1.373,1.373,0,0,0,1.372-1.372V41.372A1.373,1.373,0,0,0,345.842,40Zm-1.372,8.235H330.745v-5.49H344.47Z" transform="translate(-328 -40)" fill="#20849e"/>
    </g>
  </g>
  <g id="Grupo_1190633" data-name="Grupo 1190633" transform="translate(56.314 20.687)">
    <g id="Grupo_1190632" data-name="Grupo 1190632" transform="translate(0 0)">
      <rect id="Rectángulo_459637" data-name="Rectángulo 459637" width="2.299" height="2.299" fill="#20849e"/>
    </g>
  </g>
  <g id="Grupo_1190635" data-name="Grupo 1190635" transform="translate(62.06 20.687)">
    <g id="Grupo_1190634" data-name="Grupo 1190634" transform="translate(0 0)">
      <rect id="Rectángulo_459638" data-name="Rectángulo 459638" width="13.791" height="2.299" fill="#20849e"/>
    </g>
  </g>
  <g id="Grupo_1190637" data-name="Grupo 1190637" transform="translate(56.314 26.433)">
    <g id="Grupo_1190636" data-name="Grupo 1190636" transform="translate(0 0)">
      <rect id="Rectángulo_459639" data-name="Rectángulo 459639" width="19.538" height="2.299" fill="#20849e"/>
    </g>
  </g>
  <g id="Grupo_1190639" data-name="Grupo 1190639" transform="translate(56.314 31.03)">
    <g id="Grupo_1190638" data-name="Grupo 1190638" transform="translate(0 0)">
      <rect id="Rectángulo_459640" data-name="Rectángulo 459640" width="19.538" height="3.448" fill="#20849e"/>
    </g>
  </g>
  <g id="Grupo_1190641" data-name="Grupo 1190641" transform="translate(56.271 39.801)">
    <g id="Grupo_1190640" data-name="Grupo 1190640">
      <path id="Trazado_1091982" data-name="Trazado 1091982" d="M345.842,232h-16.47A1.373,1.373,0,0,0,328,233.372v8.235a1.373,1.373,0,0,0,1.372,1.372h16.47a1.372,1.372,0,0,0,1.372-1.372v-8.235A1.372,1.372,0,0,0,345.842,232Zm-1.372,8.235H330.745v-5.49H344.47Z" transform="translate(-328 -232)" fill="#20849e"/>
    </g>
  </g>
  <g id="Grupo_1190643" data-name="Grupo 1190643" transform="translate(56.314 54.015)">
    <g id="Grupo_1190642" data-name="Grupo 1190642" transform="translate(0 0)">
      <rect id="Rectángulo_459641" data-name="Rectángulo 459641" width="2.299" height="2.299" fill="#20849e"/>
    </g>
  </g>
  <g id="Grupo_1190645" data-name="Grupo 1190645" transform="translate(62.06 54.015)">
    <g id="Grupo_1190644" data-name="Grupo 1190644" transform="translate(0 0)">
      <rect id="Rectángulo_459642" data-name="Rectángulo 459642" width="13.791" height="2.299" fill="#20849e"/>
    </g>
  </g>
  <g id="Grupo_1190647" data-name="Grupo 1190647" transform="translate(56.314 58.613)">
    <g id="Grupo_1190646" data-name="Grupo 1190646" transform="translate(0 0)">
      <rect id="Rectángulo_459643" data-name="Rectángulo 459643" width="19.538" height="3.448" fill="#20849e"/>
    </g>
  </g>
  <g id="Grupo_1190649" data-name="Grupo 1190649" transform="translate(6.862 61.761)">
    <g id="Grupo_1190648" data-name="Grupo 1190648">
      <path id="Trazado_1091983" data-name="Trazado 1091983" d="M52.352,360H41.372A1.373,1.373,0,0,0,40,361.372v10.98a1.373,1.373,0,0,0,1.372,1.372h10.98a1.373,1.373,0,0,0,1.372-1.372v-10.98A1.373,1.373,0,0,0,52.352,360ZM50.98,370.98H42.745v-8.235H50.98Z" transform="translate(-40 -360)" fill="#20849e"/>
    </g>
  </g>
  <g id="Grupo_1190651" data-name="Grupo 1190651" transform="translate(22.986 62.06)">
    <g id="Grupo_1190650" data-name="Grupo 1190650" transform="translate(0 0)">
      <rect id="Rectángulo_459644" data-name="Rectángulo 459644" width="3.448" height="2.299" fill="#20849e"/>
    </g>
  </g>
  <g id="Grupo_1190653" data-name="Grupo 1190653" transform="translate(28.732 62.06)">
    <g id="Grupo_1190652" data-name="Grupo 1190652" transform="translate(0 0)">
      <rect id="Rectángulo_459645" data-name="Rectángulo 459645" width="16.09" height="2.299" fill="#20849e"/>
    </g>
  </g>
  <g id="Grupo_1190655" data-name="Grupo 1190655" transform="translate(22.986 67.806)">
    <g id="Grupo_1190654" data-name="Grupo 1190654" transform="translate(0 0)">
      <rect id="Rectángulo_459646" data-name="Rectángulo 459646" width="21.836" height="2.299" fill="#20849e"/>
    </g>
  </g>
  <g id="Grupo_1190657" data-name="Grupo 1190657" transform="translate(22.986 72.404)">
    <g id="Grupo_1190656" data-name="Grupo 1190656" transform="translate(0 0)">
      <rect id="Rectángulo_459647" data-name="Rectángulo 459647" width="21.836" height="3.448" fill="#20849e"/>
    </g>
  </g>
</svg>
