<svg xmlns="http://www.w3.org/2000/svg" width="77.333" height="95.52" viewBox="0 0 77.333 95.52">
  <g id="Layer_x0020_1" transform="translate(-162)">
    <path id="Trazado_1092005" data-name="Trazado 1092005" d="M176.493,69.779a1.315,1.315,0,0,1,0,2.63h-13.15A1.314,1.314,0,0,1,162,71.122V6.491A6.544,6.544,0,0,1,168.547,0h64.3a6.5,6.5,0,0,1,6.491,6.491V71.122a1.266,1.266,0,0,1-1.4,1.287H224.9a1.287,1.287,0,1,1,0-2.574h11.863V6.491a3.917,3.917,0,0,0-3.917-3.861h-64.3a3.881,3.881,0,0,0-3.917,3.861V69.779Z" transform="translate(0 0)" fill="#fec190"/>
    <path id="Trazado_1092006" data-name="Trazado 1092006" d="M407.3,1149.87a1.287,1.287,0,1,1,0,2.574h-8.953a1.314,1.314,0,0,1-1.343-1.287v-12.814a1.362,1.362,0,0,1,1.343-1.343h48.4a1.314,1.314,0,0,1,1.287,1.343v12.814a1.266,1.266,0,0,1-1.287,1.287h-9.009a1.287,1.287,0,0,1,0-2.574H445.4v-10.24H399.63v10.24Z" transform="translate(-221.85 -1073.376)" fill="#fec190"/>
    <path id="Trazado_1092007" data-name="Trazado 1092007" d="M588.441,1253.759a1.316,1.316,0,0,1,2.63,0v22.831a1.362,1.362,0,0,1-1.343,1.343H559.287A1.314,1.314,0,0,1,558,1276.59v-22.831a1.316,1.316,0,0,1,2.63,0V1275.3h27.811Z" transform="translate(-373.841 -1182.413)" fill="#fec190"/>
    <path id="Trazado_1092008" data-name="Trazado 1092008" d="M492.051,1254.63a1.315,1.315,0,0,1,0-2.63h38a1.315,1.315,0,0,1,0,2.63Z" transform="translate(-310.354 -1181.941)" fill="#fec190"/>
    <path id="Trazado_1092009" data-name="Trazado 1092009" d="M530.63,580.876h3.246V577.63H530.63Zm4.533,2.63h-5.82A1.362,1.362,0,0,1,528,582.163v-5.82A1.362,1.362,0,0,1,529.343,575h5.82a1.362,1.362,0,0,1,1.343,1.343v5.82A1.362,1.362,0,0,1,535.163,583.506Z" transform="translate(-345.52 -542.824)" fill="#fec190"/>
    <path id="Trazado_1092010" data-name="Trazado 1092010" d="M780.574,580.876h3.245V577.63h-3.245Zm4.589,2.63h-5.876A1.314,1.314,0,0,1,778,582.163v-5.82A1.314,1.314,0,0,1,779.287,575h5.876a1.352,1.352,0,0,1,1.287,1.343v5.82A1.352,1.352,0,0,1,785.163,583.506Z" transform="translate(-581.53 -542.824)" fill="#fec190"/>
    <path id="Trazado_1092011" data-name="Trazado 1092011" d="M1029.63,580.876h3.245V577.63h-3.245Zm4.533,2.63h-5.876a1.352,1.352,0,0,1-1.287-1.343v-5.82a1.352,1.352,0,0,1,1.287-1.343h5.876a1.314,1.314,0,0,1,1.287,1.343v5.82A1.314,1.314,0,0,1,1034.163,583.506Z" transform="translate(-816.597 -542.824)" fill="#fec190"/>
    <path id="Trazado_1092012" data-name="Trazado 1092012" d="M530.63,768.876h3.246V765.63H530.63Zm4.533,2.574h-5.82A1.314,1.314,0,0,1,528,770.163v-5.876A1.352,1.352,0,0,1,529.343,763h5.82a1.352,1.352,0,0,1,1.343,1.287v5.876A1.314,1.314,0,0,1,535.163,771.45Z" transform="translate(-345.52 -720.304)" fill="#fec190"/>
    <path id="Trazado_1092013" data-name="Trazado 1092013" d="M780.574,768.876h3.245V765.63h-3.245Zm4.589,2.574h-5.876A1.266,1.266,0,0,1,778,770.163v-5.876A1.3,1.3,0,0,1,779.287,763h5.876a1.341,1.341,0,0,1,1.287,1.287v5.876A1.3,1.3,0,0,1,785.163,771.45Z" transform="translate(-581.53 -720.304)" fill="#fec190"/>
    <path id="Trazado_1092014" data-name="Trazado 1092014" d="M1029.63,768.876h3.245V765.63h-3.245Zm4.533,2.574h-5.876a1.3,1.3,0,0,1-1.287-1.287v-5.876a1.341,1.341,0,0,1,1.287-1.287h5.876a1.3,1.3,0,0,1,1.287,1.287v5.876A1.266,1.266,0,0,1,1034.163,771.45Z" transform="translate(-816.597 -720.304)" fill="#fec190"/>
    <path id="Trazado_1092015" data-name="Trazado 1092015" d="M530.63,956.82h3.246v-3.19H530.63Zm4.533,2.63h-5.82A1.314,1.314,0,0,1,528,958.163v-5.876A1.314,1.314,0,0,1,529.343,951h5.82a1.314,1.314,0,0,1,1.343,1.287v5.876A1.314,1.314,0,0,1,535.163,959.45Z" transform="translate(-345.52 -897.784)" fill="#fec190"/>
    <path id="Trazado_1092016" data-name="Trazado 1092016" d="M780.574,956.82h3.245v-3.19h-3.245Zm4.589,2.63h-5.876A1.266,1.266,0,0,1,778,958.163v-5.876A1.266,1.266,0,0,1,779.287,951h5.876a1.3,1.3,0,0,1,1.287,1.287v5.876A1.3,1.3,0,0,1,785.163,959.45Z" transform="translate(-581.53 -897.784)" fill="#fec190"/>
    <path id="Trazado_1092017" data-name="Trazado 1092017" d="M1029.63,956.82h3.245v-3.19h-3.245Zm4.533,2.63h-5.876a1.3,1.3,0,0,1-1.287-1.287v-5.876a1.3,1.3,0,0,1,1.287-1.287h5.876a1.266,1.266,0,0,1,1.287,1.287v5.876A1.266,1.266,0,0,1,1034.163,959.45Z" transform="translate(-816.597 -897.784)" fill="#fec190"/>
    <path id="Trazado_1092018" data-name="Trazado 1092018" d="M272.574,103.32h60.1V84.63h-60.1Zm61.441,2.63H271.287A1.314,1.314,0,0,1,270,104.607V83.287A1.3,1.3,0,0,1,271.287,82h62.728a1.3,1.3,0,0,1,1.287,1.287v21.32A1.314,1.314,0,0,1,334.015,105.95Z" transform="translate(-101.957 -77.411)" fill="#fec190"/>
    <path id="Trazado_1092019" data-name="Trazado 1092019" d="M382.574,105.079a1.287,1.287,0,1,1-2.574,0V83.759a1.287,1.287,0,0,1,2.574,0Z" transform="translate(-205.801 -77.883)" fill="#fec190"/>
    <path id="Trazado_1092020" data-name="Trazado 1092020" d="M1282.63,105.079a1.315,1.315,0,0,1-2.63,0V83.759a1.316,1.316,0,0,1,2.63,0Z" transform="translate(-1055.439 -77.883)" fill="#fec190"/>
    <path id="Trazado_1092021" data-name="Trazado 1092021" d="M487.574,172.989a1.287,1.287,0,1,1-2.574,0v-12.7A1.266,1.266,0,0,1,486.287,159h9.457a1.287,1.287,0,1,1,0,2.574h-8.17Z" transform="translate(-304.926 -150.103)" fill="#fec190"/>
    <path id="Trazado_1092022" data-name="Trazado 1092022" d="M486.051,274.63a1.315,1.315,0,0,1,0-2.63h7.274a1.316,1.316,0,0,1,0,2.63Z" transform="translate(-304.69 -256.78)" fill="#fec190"/>
    <path id="Trazado_1092023" data-name="Trazado 1092023" d="M755.8,171.7a1.315,1.315,0,0,1,0,2.63h-9.457A1.362,1.362,0,0,1,745,172.989v-12.7A1.314,1.314,0,0,1,746.343,159H755.8a1.287,1.287,0,1,1,0,2.574h-8.17V171.7Z" transform="translate(-550.377 -150.103)" fill="#fec190"/>
    <path id="Trazado_1092024" data-name="Trazado 1092024" d="M747.051,274.63a1.315,1.315,0,0,1,0-2.63h7.274a1.316,1.316,0,0,1,0,2.63Z" transform="translate(-551.085 -256.78)" fill="#fec190"/>
    <path id="Trazado_1092025" data-name="Trazado 1092025" d="M1016.8,171.7a1.315,1.315,0,0,1,0,2.63h-9.457a1.362,1.362,0,0,1-1.343-1.343v-12.7a1.314,1.314,0,0,1,1.343-1.287h9.457a1.287,1.287,0,1,1,0,2.574h-8.17V171.7Z" transform="translate(-796.772 -150.103)" fill="#fec190"/>
    <path id="Trazado_1092026" data-name="Trazado 1092026" d="M1008.051,274.63a1.315,1.315,0,0,1,0-2.63h7.219a1.315,1.315,0,0,1,0,2.63Z" transform="translate(-797.48 -256.78)" fill="#fec190"/>
    <path id="Trazado_1092027" data-name="Trazado 1092027" d="M779.592,1364.91a1.287,1.287,0,1,1,2.574,0,1.511,1.511,0,1,0,1.511-1.511,4.13,4.13,0,1,1,4.141-4.141,1.315,1.315,0,0,1-2.63,0,1.511,1.511,0,1,0-1.511,1.511,4.114,4.114,0,1,1-4.085,4.141Z" transform="translate(-583.01 -1279.294)" fill="#fec190"/>
    <path id="Trazado_1092028" data-name="Trazado 1092028" d="M831.961,1314.805a1.316,1.316,0,0,1-2.63,0c0-1.679-.392-3.805,1.287-3.805C832.353,1311,831.961,1313.126,831.961,1314.805Z" transform="translate(-629.951 -1237.64)" fill="#fec190"/>
    <path id="Trazado_1092029" data-name="Trazado 1092029" d="M831.961,1560.749a1.315,1.315,0,0,1-2.63,0c0-1.623-.392-3.749,1.287-3.749C832.353,1557,831.961,1559.126,831.961,1560.749Z" transform="translate(-629.951 -1469.874)" fill="#fec190"/>
  </g>
</svg>
