<svg xmlns="http://www.w3.org/2000/svg" xmlns:xlink="http://www.w3.org/1999/xlink" width="188" height="120" viewBox="0 0 188 120">
  <defs>
    <clipPath id="clip-path">
      <rect id="Rectángulo_459615" data-name="Rectángulo 459615" width="141.047" height="89.858" fill="none"/>
    </clipPath>
    <clipPath id="clip-path-3">
      <rect id="Rectángulo_459611" data-name="Rectángulo 459611" width="6.287" height="27.44" fill="none"/>
    </clipPath>
    <clipPath id="clip-path-4">
      <rect id="Rectángulo_459612" data-name="Rectángulo 459612" width="7.923" height="3.122" fill="none"/>
    </clipPath>
    <clipPath id="clip-path-5">
      <rect id="Rectángulo_459613" data-name="Rectángulo 459613" width="7.293" height="2.018" fill="none"/>
    </clipPath>
  </defs>
  <g id="Grupo_1190587" data-name="Grupo 1190587" transform="translate(-184.674 -797)">
    <g id="Grupo_1189119" data-name="Grupo 1189119" transform="translate(-0.674 -16)">
      <rect id="Rectángulo_456737" data-name="Rectángulo 456737" width="188" height="120" rx="15" transform="translate(185.348 813)" fill="#f4ece4"/>
    </g>
    <g id="Grupo_1190580" data-name="Grupo 1190580" transform="translate(212.96 812.07)">
      <g id="Grupo_1190579" data-name="Grupo 1190579" clip-path="url(#clip-path)">
        <g id="Grupo_1190578" data-name="Grupo 1190578">
          <g id="Grupo_1190577" data-name="Grupo 1190577" clip-path="url(#clip-path)">
            <path id="Trazado_1091578" data-name="Trazado 1091578" d="M96.938,49.168c6.3-1.9,6.076-1.839,8.7-.446s6.41.056,5.239-1.728c0,0,3.344-.056,3.791-1.17,0,0,6.02-1.449,4.571-4.18s-4.459-1.338-4.459-1.338,2.118-3.678-1.338-4.961-5.964-.334-6.466.558c0,0-2.9-1.115-4.459,1.226a4.8,4.8,0,0,0-.39,4.627s-1.393-.5-2.007,1.338,2.286,2.564,2.007,3.233-5.184,2.843-5.184,2.843" transform="translate(-43.422 -15.552)" fill="#ddd3c3"/>
            <path id="Trazado_1091579" data-name="Trazado 1091579" d="M117.626,45.039c-2.185.918-4.148.543-4.385-.837-.2-1.19.944-2.737,2.664-3.73a4.487,4.487,0,0,0-1.132.312,5.577,5.577,0,0,0,.612-1.87,4.575,4.575,0,0,1-3.482,1.536,4.148,4.148,0,0,1-4.376-3.874,3.454,3.454,0,0,1,.091-.789,1.733,1.733,0,0,0-.649.593s-.122-.046-.327-.1c.04.106.079.213.116.322.911,2.714.333,5.564-1.289,6.365-1.184.584-2.6-.083-3.628-1.54a4.053,4.053,0,0,0,.278.806,1.466,1.466,0,0,0-.989.052,3.445,3.445,0,0,1,.652.238c1.247.6,1.909,1.813,1.479,2.7a1.743,1.743,0,0,1-1.686.847c.371.278.638.51.544.735-.279.669-5.184,2.843-5.184,2.843,6.3-1.9,6.076-1.839,8.7-.446a5.361,5.361,0,0,0,3.366.5c-.044,0-.088,0-.133,0-1.477,0-2.675-.6-2.675-1.338s1.2-1.338,2.675-1.338a4.174,4.174,0,0,1,2.014.459l-.008-.013s3.344-.056,3.791-1.171a11.94,11.94,0,0,0,3.74-1.642,7.842,7.842,0,0,1-.777.379" transform="translate(-43.421 -16.03)" fill="#ccbfac"/>
            <path id="Trazado_1091580" data-name="Trazado 1091580" d="M120.539,46.037a2.508,2.508,0,0,0-3.489-1.442,3.2,3.2,0,0,0-2.213,3.54,2.508,2.508,0,0,0,3.489,1.442,3.2,3.2,0,0,0,2.213-3.54" transform="translate(-51.407 -19.88)" fill="#ddd3c3"/>
            <path id="Trazado_1091581" data-name="Trazado 1091581" d="M100.677,39.9a1.437,1.437,0,0,0-1.264-.781s.521.929-.6.669-.483-1.3-.483-1.3-1.329.273-.483-1.041c.744-1.152,1.672.335,1.672.335s-.149-1.524.818-.78-.26,1.523-.26,1.523c.389.14.47.794.6,1.375" transform="translate(-43.705 -16.481)" fill="#ddd3c3"/>
            <path id="Trazado_1091582" data-name="Trazado 1091582" d="M196.946,140.379h-1l-1.173-27.425,2.176-.167Z" transform="translate(-87.244 -50.521)" fill="#6d3342"/>
            <path id="Trazado_1091583" data-name="Trazado 1091583" d="M196.135,145.007h1V124.379a2.43,2.43,0,0,0-1.858-1.259c-.027,0-.054,0-.081.006Z" transform="translate(-87.436 -55.149)" fill="#99415a"/>
            <path id="Trazado_1091584" data-name="Trazado 1091584" d="M236.268,140.379h1.106l1.292-27.425-2.4-.167Z" transform="translate(-105.832 -50.521)" fill="#6d3342"/>
            <path id="Trazado_1091585" data-name="Trazado 1091585" d="M215.67,140.379h-1L212.8,112.955l2.171-.167Z" transform="translate(-95.321 -50.521)" fill="#4f2430"/>
            <path id="Trazado_1091586" data-name="Trazado 1091586" d="M206.256,106.847a3.725,3.725,0,0,1-3.753-3.423.853.853,0,0,1,.789-1.036h5.717a.842.842,0,0,1,.8.9c-.04,1.3-.545,3.556-3.556,3.556" transform="translate(-90.701 -45.863)" fill="#d3c9b4"/>
            <path id="Trazado_1091587" data-name="Trazado 1091587" d="M216.087,102.388h-1.91c.059.251.4.513.4.784h.875a.367.367,0,0,1,.367.367.935.935,0,0,1-.935.935h-.524a3.363,3.363,0,0,1-.41.784h.881A2.063,2.063,0,0,0,216.9,103.2a.808.808,0,0,0-.808-.808" transform="translate(-95.836 -45.863)" fill="#d3c9b4"/>
            <path id="Trazado_1091588" data-name="Trazado 1091588" d="M205.833,105.509a3.5,3.5,0,0,0,3.506-3.046.742.742,0,0,0-.325-.075H203.3a.831.831,0,0,0-.8.8,3.524,3.524,0,0,0,3.336,2.319" transform="translate(-90.705 -45.863)" fill="#e5ddcf"/>
            <path id="Trazado_1091589" data-name="Trazado 1091589" d="M217.012,102.388h-1a2.62,2.62,0,0,0,.138.784h.225a.367.367,0,0,1,.367.367.916.916,0,0,1-.107.426,1.188,1.188,0,0,0,.823.356l.024,0a2.046,2.046,0,0,0,.333-1.122.808.808,0,0,0-.808-.808" transform="translate(-96.76 -45.863)" fill="#e5ddcf"/>
            <path id="Trazado_1091590" data-name="Trazado 1091590" d="M211.519,103.432a4.1,4.1,0,0,1-3.967,3.744A3.755,3.755,0,0,1,206.41,107a3.879,3.879,0,0,0,1.6.319c3.011,0,3.516-2.253,3.556-3.556a.94.94,0,0,0-.049-.327" transform="translate(-92.458 -46.33)" fill="#e0d7c7"/>
            <path id="Trazado_1091591" data-name="Trazado 1091591" d="M202.55,104.418c.031.162.07.325.116.488l7.119-.1c.02-.135.033-.266.042-.39-1.121-.012-4.8-.043-7.278,0" transform="translate(-90.729 -46.762)" fill="#99415a"/>
            <path id="Trazado_1091592" data-name="Trazado 1091592" d="M220.439,109.961H190.952a1.226,1.226,0,0,0,0,2.453h29.487a1.226,1.226,0,0,0,0-2.453" transform="translate(-84.984 -49.255)" fill="#6d3342"/>
            <path id="Trazado_1091593" data-name="Trazado 1091593" d="M208.186,111.354c4.9,0,9.508-.1,13.521-.274a1.226,1.226,0,0,0-1.221-1.12H191a1.226,1.226,0,0,0-1.168.854c4.927.336,11.341.54,18.355.54" transform="translate(-85.031 -49.255)" fill="#99415a"/>
            <path id="Trazado_1091594" data-name="Trazado 1091594" d="M238.421,122.2a1.3,1.3,0,0,0-.888-.422,1.662,1.662,0,0,0-1.265.868V144.4h1.106Z" transform="translate(-105.832 -54.546)" fill="#99415a"/>
            <path id="Trazado_1091595" data-name="Trazado 1091595" d="M150.891,132.055H124.47c-2.135-14.6-.62-29.431,5.7-34.113s21.185-2.492,25.041.112c7.927,5.351-4.317,34-4.317,34" transform="translate(-55.346 -42.643)" fill="#afa74a"/>
            <path id="Trazado_1091596" data-name="Trazado 1091596" d="M130.379,117.451c0-11.76,8.31-21.293,18.562-21.293q.678,0,1.344.056c-6.113-1.439-15.45-1.732-20.117,1.728-6.317,4.682-7.832,19.509-5.7,34.113h10.963a22.984,22.984,0,0,1-5.055-14.6" transform="translate(-55.347 -42.643)" fill="#a09740"/>
            <path id="Trazado_1091597" data-name="Trazado 1091597" d="M136.35,111.607l1.913,1.635s0-9.142-.274-15.493a10.932,10.932,0,0,0-2.426,1.321Z" transform="translate(-60.723 -43.785)" fill="#8e8338"/>
            <path id="Trazado_1091598" data-name="Trazado 1091598" d="M172.937,99.617a9.566,9.566,0,0,0-1.879-.927,9.955,9.955,0,0,0-1.312.815c-6.316,4.682-7.832,19.509-5.7,34.113h4.571s12.244-28.651,4.317-34" transform="translate(-73.075 -44.206)" fill="#c1b652"/>
            <path id="Trazado_1091599" data-name="Trazado 1091599" d="M58.512,93.615c-2.007-13.489-.223-26.2,4.236-27.424s26.065-3.525,32.441.334c8.473,5.128,7.58,28.2,7.58,28.2Z" transform="translate(-25.842 -28.84)" fill="#afa74a"/>
            <path id="Trazado_1091600" data-name="Trazado 1091600" d="M79.471,86.585c-9.565-4.59-15.585-11.64-15.172-19.146-.634.119-1.159.235-1.55.343-4.459,1.226-6.243,13.935-4.236,27.424L102.77,96.32s.13-3.391-.185-7.86c-5.844,3.506-14.684,2.17-23.114-1.875" transform="translate(-25.843 -30.208)" fill="#a09740"/>
            <g id="Grupo_1190570" data-name="Grupo 1190570" transform="translate(31.851 37.378)" opacity="0.55">
              <g id="Grupo_1190569" data-name="Grupo 1190569">
                <g id="Grupo_1190568" data-name="Grupo 1190568" clip-path="url(#clip-path-3)">
                  <path id="Trazado_1091601" data-name="Trazado 1091601" d="M63.778,81.481c.513-6.26.022-11.665-1.114-13.776-4.4,1.364-6.145,13.994-4.152,27.4l1.7.043c1.545-1.637,3.023-7.095,3.562-13.664" transform="translate(-57.693 -67.705)" fill="#afa74a"/>
                </g>
              </g>
            </g>
            <path id="Trazado_1091602" data-name="Trazado 1091602" d="M126.72,116.133c-3.831-2.31-23.1-1.672-33.009-1.561l-2.833,26.086H127.7s5.12-20.847-.98-24.526" transform="translate(-40.708 -51.247)" fill="#c1b652"/>
            <path id="Trazado_1091603" data-name="Trazado 1091603" d="M101.747,114.444c-3.577.036-6.981.113-9.657.145l-1.211,26.086H105.9c.264-6.351.381-21.5-4.151-26.231" transform="translate(-40.708 -51.263)" fill="#afa74a"/>
            <path id="Trazado_1091604" data-name="Trazado 1091604" d="M87.013,132.055H60.592c-7.58-14.6-11.594-29.431-7.023-34.113s20.255-2.493,25.083.111c9.922,5.351,8.361,34,8.361,34" transform="translate(-23.129 -42.643)" fill="#c1b652"/>
            <path id="Trazado_1091605" data-name="Trazado 1091605" d="M67.058,97.534a3.952,3.952,0,0,1,3.836-1.725c-6.395-1.052-14.3-.968-17.325,2.134-4.571,4.683-.557,19.51,7.023,34.113H79.655c-9.755-13.545-16.91-26.974-12.6-34.522" transform="translate(-23.129 -42.644)" fill="#afa74a"/>
            <path id="Trazado_1091606" data-name="Trazado 1091606" d="M69.833,110.54a59.353,59.353,0,0,1,5.916,21.516h7.239c-9.754-13.545-16.911-26.973-12.6-34.522a3.953,3.953,0,0,1,3.836-1.725c-5.2-.855-11.39-.959-15.152.7,3.741,3.68,7.624,7.744,10.759,14.035" transform="translate(-26.461 -42.644)" fill="#a59b44"/>
            <path id="Trazado_1091607" data-name="Trazado 1091607" d="M99.276,109.332c-1.138-3.965-4.139-6.583-6.7-5.847s-3.721,4.547-2.583,8.512,4.139,6.583,6.7,5.847,3.721-4.547,2.583-8.512" transform="translate(-40.113 -46.299)" fill="#d1c25a"/>
            <path id="Trazado_1091608" data-name="Trazado 1091608" d="M177.444,111.658c.544-3.222-.705-6.12-2.789-6.471s-4.214,1.975-4.758,5.2.7,6.12,2.789,6.471,4.214-1.975,4.758-5.2" transform="translate(-76.045 -47.101)" fill="#d1c25a"/>
            <path id="Trazado_1091609" data-name="Trazado 1091609" d="M102.953,68.137c-4.7-2.842-16.884-2.654-25.925-1.814.709,4.624,5.862,10.091,13.3,13.542,7.79,3.612,15.644,3.881,19.466,1.042-1.18-5.47-3.247-10.59-6.847-12.77" transform="translate(-34.503 -29.464)" fill="#c1b652"/>
            <path id="Trazado_1091610" data-name="Trazado 1091610" d="M39.9,6.077c-.591-1.457-2.875-2.6-2.717-3.308S43.246-.618,44.546.131s2.008,3.426,2.008,3.426L42.891,5.644Z" transform="translate(-16.651 0)" fill="#934163"/>
            <path id="Trazado_1091611" data-name="Trazado 1091611" d="M39.984,1.678A7.549,7.549,0,0,0,44.79,3a11.129,11.129,0,0,0,2.731-.322A5.162,5.162,0,0,0,45.8.131c-.889-.512-3.934.58-5.82,1.547" transform="translate(-17.91 0)" fill="#af3e71"/>
            <path id="Trazado_1091612" data-name="Trazado 1091612" d="M43.09,15.377c-2.56,1.851-4.8.866-5.907-1.575s-1.142-6.616,3.308-6.183A3.989,3.989,0,0,1,44.9,6.477S46,4.665,47.619,5.69s2.481,6.143.04,7.758a12.522,12.522,0,0,1-4.568,1.929" transform="translate(-16.377 -2.408)" fill="#773f49"/>
            <path id="Trazado_1091613" data-name="Trazado 1091613" d="M46.109,8.322c0-1.2-.318-2,.128-2.828A2.588,2.588,0,0,0,44.947,6.53c-.074-.026-.147-.05-.22-.072.09.453,1,1.169,1,1.687,0,2.178-1.73,3.721-2.806,3.721S40.97,10.1,40.97,7.923c0-.241.013-.477.033-.706a3.509,3.509,0,0,0-.466.455c-.12-.012-.236-.019-.351-.024a5.967,5.967,0,0,1-.123,1.916c-.419,1.894-1.567,3.25-2.563,3.029a1.3,1.3,0,0,1-.836-.728,7.262,7.262,0,0,0,.564,1.989c1.1,2.442,3.348,3.426,5.907,1.576A12.518,12.518,0,0,0,47.7,13.5a2.7,2.7,0,0,0,.29-.225c-1.395-.284-1.885-2.554-1.885-4.953" transform="translate(-16.423 -2.461)" fill="#63323c"/>
            <g id="Grupo_1190573" data-name="Grupo 1190573" transform="translate(21.077 0.79)" style="mix-blend-mode: overlay;isolation: isolate">
              <g id="Grupo_1190572" data-name="Grupo 1190572">
                <g id="Grupo_1190571" data-name="Grupo 1190571" clip-path="url(#clip-path-4)">
                  <path id="Trazado_1091614" data-name="Trazado 1091614" d="M38.452,4.554A27.424,27.424,0,0,1,46.1,2.008a5.112,5.112,0,0,0-.387-.576c-2.162.45-5.53,1.349-7.536,2.87.085.081.177.165.273.252" transform="translate(-38.179 -1.431)" fill="#f7eedf"/>
                </g>
              </g>
            </g>
            <path id="Trazado_1091615" data-name="Trazado 1091615" d="M80.81,42.768s-.516.279-.46.446c.047.14.413.124.532.115a1.046,1.046,0,0,0-.364.122c-.237.125.039.427.321.293a2.848,2.848,0,0,0,.585-.39Z" transform="translate(-35.99 -19.157)" fill="#ed8c62"/>
            <path id="Trazado_1091616" data-name="Trazado 1091616" d="M78.6,41.5c.947-.39,1.115-.743,1.542-.65a3.758,3.758,0,0,1,1.356.52,5.279,5.279,0,0,1,.5.948c.037.13-.2.223-.335.093s-.613-.8-.613-.8l-1.487.13Z" transform="translate(-35.205 -18.293)" fill="#ffa77b"/>
            <path id="Trazado_1091617" data-name="Trazado 1091617" d="M81.116,42.133c.309,2.011,2.638,5.946,2.638,5.946l.335-.223s-1.041-5.426-1.561-5.871-1.487-.335-1.412.149" transform="translate(-36.332 -18.68)" fill="#59404a"/>
            <path id="Trazado_1091618" data-name="Trazado 1091618" d="M57.137,41.366c-.818-.855-3.864-7.99-4.98-9.587l-1.6,7.58c.483.781,5.351,5.388,6.354,5.24s1.264-1.412,1.3-1.932-.26-.446-1.078-1.3" transform="translate(-22.647 -14.235)" fill="#f7eedf"/>
            <path id="Trazado_1091619" data-name="Trazado 1091619" d="M57.944,44.885c-1.71.752-5.489-5.2-6.046-7.991L50.56,41.651c.483.781,5.351,5.388,6.354,5.24s1.264-1.412,1.3-1.932a.738.738,0,0,0-.012-.22,1.6,1.6,0,0,1-.259.147" transform="translate(-22.647 -16.526)" fill="#e0d5c3"/>
            <path id="Trazado_1091620" data-name="Trazado 1091620" d="M87.438,57.957c-3.641-2.155-2.23-5.463-2.23-5.463l.446-.185c2.044.595,2.638,1.746,4.422,1.969a5.856,5.856,0,0,1-2.638,3.679" transform="translate(-38.047 -23.431)" fill="#edac43"/>
            <path id="Trazado_1091621" data-name="Trazado 1091621" d="M85.821,54.764a3.642,3.642,0,0,1-.561-2.158l-.051.022s-1.412,3.307,2.23,5.463a6.12,6.12,0,0,0,1.741-1.648,3.594,3.594,0,0,1-3.358-1.678" transform="translate(-38.047 -23.564)" fill="#e28b34"/>
            <path id="Trazado_1091622" data-name="Trazado 1091622" d="M61.215,48.883c2.713,1.449,8.659-5.574,10.07-6.689l-.112-.52c-2.155.78-7.8,4.2-9.29,4.125s-.669,3.084-.669,3.084" transform="translate(-27.32 -18.667)" fill="#ffa77b"/>
            <path id="Trazado_1091623" data-name="Trazado 1091623" d="M63.138,49.379a1.064,1.064,0,0,1,.109-1.05,3.955,3.955,0,0,1-1.364.339c-1.487-.075-.669,3.084-.669,3.084,1.689.9,4.629-1.478,6.95-3.673-2.384,1.433-4.545,2.018-5.027,1.3" transform="translate(-27.32 -21.536)" fill="#ed8c62"/>
            <path id="Trazado_1091624" data-name="Trazado 1091624" d="M18.131,70.281S5.2,72.065,3.416,81.094s5.128,30.1,13.489,38.349l1.561-.334a200.554,200.554,0,0,1-.335-48.829" transform="translate(-1.403 -31.481)" fill="#ffa77b"/>
            <path id="Trazado_1091625" data-name="Trazado 1091625" d="M14.358,115.953c-3.428-5.065-4.484-10.336-2.36-11.775,1.193-.807,3.135-.234,5.216,1.321a190.6,190.6,0,0,1,.916-35.218S5.2,72.065,3.415,81.094s5.128,30.1,13.489,38.349l.245-.052a24.718,24.718,0,0,1-2.791-3.438" transform="translate(-1.403 -31.481)" fill="#ed8c62"/>
            <path id="Trazado_1091626" data-name="Trazado 1091626" d="M21.68,120.557s-1.614-1.149-1.786-1.206,2.364,16.124,4.738,20.587l.277-.019c-1.505-2.355-3.228-19.361-3.228-19.361" transform="translate(-8.907 -53.461)" fill="#ed8c62"/>
            <path id="Trazado_1091627" data-name="Trazado 1091627" d="M34.743,158.111h-5.3c-.776-1.147-1.728-2.675-1.728-2.675l-.65-1.784,1.784-.781s.876,1.769,1.041,2.081c1.355,2.569,4.541,1.645,4.849,3.158" transform="translate(-12.125 -68.476)" fill="#eadcc7"/>
            <path id="Trazado_1091628" data-name="Trazado 1091628" d="M31.161,157.99l-5.518-.028a23.941,23.941,0,0,1-1.867-1.756l-.139-2.815,1.709-.789s.8,1.918.966,2.23c1.355,2.569,4.541,1.645,4.849,3.158" transform="translate(-10.587 -68.355)" fill="#f7eedf"/>
            <path id="Trazado_1091629" data-name="Trazado 1091629" d="M.563,87.779c12.709,6.986,18.877,4.608,20.29,1.784,0,0-2.23-8.1-1.858-11.892s1.189-14.343,1.189-14.343l.3-7.506-4.162-3.716c-7.506-.521-9.763,1.408-11.3,3.344C-2.335,64.739.563,87.779.563,87.779" transform="translate(0 -23.301)" fill="#59404a"/>
            <path id="Trazado_1091630" data-name="Trazado 1091630" d="M18.995,77.67c.372-3.79,1.189-14.344,1.189-14.344l.3-7.506L16.319,52.1c-7.506-.52-9.763,1.408-11.3,3.344C-2.335,64.739.563,87.778.563,87.778a46.983,46.983,0,0,0,6.712,3.087c-5.226-9.4-1.727-25.586-.841-27.539,1.443-3.18,2.9,4.385,7.878,7.8s2.824,7.358,5.145,16.52a19.683,19.683,0,0,1,.429,3.124,3.954,3.954,0,0,0,.966-1.212s-2.23-8.1-1.858-11.892" transform="translate(0 -23.301)" fill="#4c353f"/>
            <path id="Trazado_1091631" data-name="Trazado 1091631" d="M17.258,60.655l-2.3,2.6c-.818,8.844,4.682,28.985,4.682,28.985s-3.047-17.168-2.378-31.586" transform="translate(-6.661 -27.169)" fill="#4c353f"/>
            <path id="Trazado_1091632" data-name="Trazado 1091632" d="M29.978,54.636l-7.3-2.731c-3.455,6.3-1.728,18.116,3.289,19.509s4.348-12.152,4.014-16.778" transform="translate(-9.349 -23.25)" fill="#f7eedf"/>
            <path id="Trazado_1091633" data-name="Trazado 1091633" d="M26.994,63.2a6.8,6.8,0,0,1,3.145.081,72.8,72.8,0,0,0-.16-8.642l-7.3-2.732c-2.31,4.211-2.3,10.887-.547,15.267A6.8,6.8,0,0,1,26.994,63.2" transform="translate(-9.349 -23.25)" fill="#e0d5c3"/>
            <path id="Trazado_1091634" data-name="Trazado 1091634" d="M27.232,70.607a2.355,2.355,0,0,1-.628-.09A4.977,4.977,0,0,1,23.65,67.36c-1.76-4.175-1.484-10.915.6-14.719l.052-.1L30.218,55.8l0,.059c.328,4.53.529,12.414-1.8,14.319a1.836,1.836,0,0,1-1.191.433M24.393,52.842c-2.012,3.771-2.265,10.346-.542,14.433a4.771,4.771,0,0,0,2.812,3.031,1.685,1.685,0,0,0,1.623-.3c2.242-1.835,2.045-9.578,1.724-14.075Z" transform="translate(-10.074 -23.537)" fill="#59404a"/>
            <path id="Trazado_1091635" data-name="Trazado 1091635" d="M40.036,30.45a5.99,5.99,0,0,0-3.846-2.174,15.039,15.039,0,0,0-3.678.558l-1.115,3.9s-2.935,7.859-8.231,8.7l7.692,3.754c.353-1.487,5.054-5.314,5.611-5.537s2.286-.241,2.564-.52,1.338-8.008,1-8.677" transform="translate(-10.376 -12.664)" fill="#f7eedf"/>
            <path id="Trazado_1091636" data-name="Trazado 1091636" d="M31.712,37.193c-.582-.614.888-5.415,1.794-8.342-.586.126-1,.241-1,.241l-1.115,3.9s-2.936,7.859-8.231,8.7l7.692,3.753c.353-1.486,5.054-5.314,5.611-5.537s2.285-.242,2.564-.521a.152.152,0,0,0,.028-.047c-2.41-.554-6.863-1.633-7.349-2.145" transform="translate(-10.376 -12.923)" fill="#e0d5c3"/>
            <path id="Trazado_1091637" data-name="Trazado 1091637" d="M20.27,38.315c5.128-1,9.067-4.051,9.364-4.682s1.821-4.5-.2-4.348-12.95,7.357-13.136,7.8,3.976,1.226,3.976,1.226" transform="translate(-7.296 -13.116)" fill="#f7eedf"/>
            <path id="Trazado_1091638" data-name="Trazado 1091638" d="M20.329,37.473c-.562-1.038,2.325-3.689,6.448-5.923a30.444,30.444,0,0,1,3.6-1.671.826.826,0,0,0-.95-.594c-2.025.149-12.95,7.357-13.136,7.8s3.976,1.226,3.976,1.226a19.269,19.269,0,0,0,1.944-.489c-.989.145-1.671.041-1.885-.353" transform="translate(-7.296 -13.116)" fill="#e0d5c3"/>
            <path id="Trazado_1091639" data-name="Trazado 1091639" d="M30.084,48.211c4.027,1.261,6.689,2.155,6.652,3.01s-1.152,1.449-1.152,1.449-8.064,2.6-9.216,2.453-1.226-.706-1.189-1.6,1.226-6.466,4.905-5.314" transform="translate(-11.275 -21.525)" fill="#edac43"/>
            <path id="Trazado_1091640" data-name="Trazado 1091640" d="M34.1,51.034a17.436,17.436,0,0,1-5.094-2.968c-2.838.121-3.795,4.666-3.828,5.464-.037.892.037,1.449,1.189,1.6s9.216-2.452,9.216-2.452a2.969,2.969,0,0,0,.9-.778c-.749-.231-1.554-.52-2.381-.863" transform="translate(-11.275 -21.53)" fill="#e28f34"/>
            <path id="Trazado_1091641" data-name="Trazado 1091641" d="M30.059,58.418c-2.118-.483-3.158-.595-3.344-1.115s.83-6.742,2.378-6.354c2.23.557.966,7.469.966,7.469" transform="translate(-11.956 -22.814)" fill="#72314f"/>
            <path id="Trazado_1091642" data-name="Trazado 1091642" d="M17.51,40.344c-.7,0-2.731,1.979-1.059,2.9l4.487.251c.112-.948-2.731-3.15-3.428-3.15" transform="translate(-7.081 -18.071)" fill="#59404a"/>
            <path id="Trazado_1091643" data-name="Trazado 1091643" d="M20.936,44.512c-.929-1-4.274-1.747-4.682-1.226s1.524,2.9,3.27,4.571a10.763,10.763,0,0,0,7.32,2.75l.038-.669c-4.162-1.338-5.017-4.422-5.946-5.425" transform="translate(-7.256 -19.312)" fill="#ffa77b"/>
            <path id="Trazado_1091644" data-name="Trazado 1091644" d="M23.974,48.393a.791.791,0,0,1-.205.63c-.554.519-2.038-.165-3.315-1.528s-1.863-2.888-1.309-3.407c.251-.235.692-.222,1.218-.013-1.306-.764-3.762-1.231-4.108-.789-.409.52,1.523,2.9,3.27,4.571a10.762,10.762,0,0,0,7.32,2.75l.038-.669a8.8,8.8,0,0,1-2.908-1.545" transform="translate(-7.256 -19.312)" fill="#ed8c62"/>
            <path id="Trazado_1091645" data-name="Trazado 1091645" d="M30.2,51.468c2.675,4.72-1.078,9.03,0,9.7s6.131.818,6.763.112,1.969-6.169,1.226-7.32c-.415-.643-8.952-4.187-7.99-2.49" transform="translate(-13.44 -22.85)" fill="#934163"/>
            <path id="Trazado_1091646" data-name="Trazado 1091646" d="M30.842,60.944c-1.078-.669,2.675-4.98,0-9.7a.526.526,0,0,1-.075-.205c-.619-.084-.937.021-.706.428,2.675,4.719-1.264,9.067-.186,9.736,1.013.629,5.726.761,6.789.192-1.684.278-4.977.073-5.823-.452" transform="translate(-13.296 -22.851)" fill="#72314f"/>
            <path id="Trazado_1091647" data-name="Trazado 1091647" d="M45.926,30.4a6.063,6.063,0,0,0-3.815-2.123,15.056,15.056,0,0,0-3.679.557,7.176,7.176,0,0,0-2.048.787,19.014,19.014,0,0,0,5.623.958,22.5,22.5,0,0,0,3.918-.179" transform="translate(-16.298 -12.664)" fill="#e0d5c3"/>
            <path id="Trazado_1091648" data-name="Trazado 1091648" d="M46.1,28.276a6.9,6.9,0,0,0-.8.023,13.744,13.744,0,0,1,2.272,3.581c.076-.025,1.147-1.269,1.826-2.064A6.18,6.18,0,0,0,46.1,28.276" transform="translate(-20.291 -12.664)" fill="#ed8c62"/>
            <path id="Trazado_1091649" data-name="Trazado 1091649" d="M46.155,18.413a10.86,10.86,0,0,1,.054,5.147,5.814,5.814,0,0,0,1.635,1.264,2.193,2.193,0,0,0,1.375-.075A40.536,40.536,0,0,0,49.4,18.8c-.223-1.746-3.249-.391-3.249-.391" transform="translate(-20.674 -8.023)" fill="#dd704a"/>
            <path id="Trazado_1091650" data-name="Trazado 1091650" d="M50.543,19.978a7.014,7.014,0,0,1-4.1-4.253,1.9,1.9,0,0,1,1.142-2.481c.7-.185,2.245-2.363,2.52-3.662a5.427,5.427,0,0,1,2.245,2.954c.867,3.938-1.811,7.443-1.811,7.443" transform="translate(-20.758 -4.292)" fill="#ffa77b"/>
            <path id="Trazado_1091651" data-name="Trazado 1091651" d="M45.178,18.738c-2.363.433-2.875-1.654-2.166-2.127s1.89.473,2.008,1.024a9.064,9.064,0,0,1,.157,1.1" transform="translate(-19.134 -7.383)" fill="#ffa77b"/>
            <path id="Trazado_1091652" data-name="Trazado 1091652" d="M61.463,48.713c-.362.892.167,3.4-.251,3.539a1.918,1.918,0,0,1-1.951-.808c-.474-.78,1.226-3.121,1.588-3.177s.613.446.613.446" transform="translate(-26.508 -21.618)" fill="#59404a"/>
            <path id="Trazado_1091653" data-name="Trazado 1091653" d="M91.633,56.068a6.979,6.979,0,0,1-3.025-.629,7.915,7.915,0,0,0,2.758,1.356,4.609,4.609,0,0,0,.267-.727" transform="translate(-39.69 -24.833)" fill="#e28b34"/>
            <path id="Trazado_1091654" data-name="Trazado 1091654" d="M82.64,41.985a1.167,1.167,0,0,0-1.279-.153c.081.33.183.675.306,1.026.6,1.7,1.5,2.966,2.133,3.058a15.492,15.492,0,0,0-1.16-3.931" transform="translate(-36.444 -18.681)" fill="#844d63"/>
            <g id="Grupo_1190576" data-name="Grupo 1190576" transform="translate(17.185 34.784)" opacity="0.68" style="mix-blend-mode: overlay;isolation: isolate">
              <g id="Grupo_1190575" data-name="Grupo 1190575">
                <g id="Grupo_1190574" data-name="Grupo 1190574" clip-path="url(#clip-path-5)">
                  <path id="Trazado_1091655" data-name="Trazado 1091655" d="M38.14,65.025c.1-.328.193-.685.282-1.057a55.843,55.843,0,0,0-7.063-.961c-.073.287-.151.563-.231.823a67.781,67.781,0,0,1,7.012,1.2" transform="translate(-31.128 -63.007)" fill="#f7eedf"/>
                </g>
              </g>
            </g>
            <path id="Trazado_1091656" data-name="Trazado 1091656" d="M47.756,31.256a13.228,13.228,0,0,0-2.012-2.978c-.145,0-.293.011-.444.023a13.75,13.75,0,0,1,2.272,3.582c.076-.025,1.147-1.269,1.826-2.064-.087-.077-.183-.155-.284-.234-.592.757-1.3,1.647-1.359,1.671" transform="translate(-20.291 -12.667)" fill="#59404a"/>
            <path id="Trazado_1091657" data-name="Trazado 1091657" d="M44.9,18.4a.374.374,0,0,1-.335-.4.419.419,0,0,1,.173-.351c-.259-.238-.657-.418-.934-.234-.42.28-.116,1.517,1.284,1.26,0,0-.009-.135-.035-.318a.289.289,0,0,1-.153.046" transform="translate(-19.541 -7.766)" fill="#dd704a"/>
            <path id="Trazado_1091658" data-name="Trazado 1091658" d="M77.82,42.878a2.464,2.464,0,0,0,1.422-.083,6.333,6.333,0,0,0,1.254.111c.14-.083.363-.222.2-.334a4.48,4.48,0,0,0-1.171-.363c-.529-.111-1.393-.222-1.616,0s-.083.669-.083.669" transform="translate(-34.839 -18.849)" fill="#ffa77b"/>
            <path id="Trazado_1091659" data-name="Trazado 1091659" d="M52.437,23.7c-1.353.122-1.282-1.648-1.282-1.648l2.275.151s-.043,1.412-.993,1.5" transform="translate(-22.914 -9.876)" fill="#3a2c32"/>
            <path id="Trazado_1091660" data-name="Trazado 1091660" d="M51.557,22.906a6.4,6.4,0,0,0,.8.05,6.542,6.542,0,0,0,.722-.039,2,2,0,0,0,.11-.554l-1.736-.115a2.011,2.011,0,0,0,.1.658" transform="translate(-23.049 -9.966)" fill="#fff"/>
            <path id="Trazado_1091661" data-name="Trazado 1091661" d="M53.422,19.3c.328.568.247.971-.325,1.174,0,0,.634,0,.788-.231s-.139-.541-.464-.943" transform="translate(-23.784 -8.643)" fill="#dd704a"/>
            <path id="Trazado_1091662" data-name="Trazado 1091662" d="M51.905,17.151c-.017-.338-.248-.552-.517-.478a.737.737,0,0,0-.455.746c.017.338.248.553.517.479a.738.738,0,0,0,.455-.746" transform="translate(-22.814 -7.462)" fill="#3a2c32"/>
            <path id="Trazado_1091663" data-name="Trazado 1091663" d="M55.927,17.541c.016-.344-.153-.587-.377-.542s-.419.359-.435.7.153.587.377.543.419-.359.435-.7" transform="translate(-24.687 -7.612)" fill="#3a2c32"/>
            <path id="Trazado_1091664" data-name="Trazado 1091664" d="M50.227,17.291a1.65,1.65,0,0,1,1.5-.491l.053-.306a1.332,1.332,0,0,0-1.557.8" transform="translate(-22.498 -7.376)" fill="#3a2c32"/>
            <path id="Trazado_1091665" data-name="Trazado 1091665" d="M56.192,17.686c-.395-.8-.973-.681-.973-.681l.083-.3c.775-.009.9.518.89.977" transform="translate(-24.734 -7.484)" fill="#3a2c32"/>
            <path id="Trazado_1091666" data-name="Trazado 1091666" d="M49.284,15.623a5.9,5.9,0,0,1,2.6-.7l.018-.714a2.765,2.765,0,0,0-2.615,1.416" transform="translate(-22.076 -6.364)" fill="#773f49"/>
            <path id="Trazado_1091667" data-name="Trazado 1091667" d="M56.922,15.922a3.191,3.191,0,0,0-1.571-1.188l.267-.655a1.753,1.753,0,0,1,1.3,1.843" transform="translate(-24.793 -6.306)" fill="#773f49"/>
            <path id="Trazado_1091668" data-name="Trazado 1091668" d="M208.928,63.038h-3.414l-1.115,6.2h5.937Z" transform="translate(-91.557 -28.237)" fill="#2d1c20"/>
            <path id="Trazado_1091669" data-name="Trazado 1091669" d="M214.366,5.472l-50.682-.258,1.865,35.02,48.027-.258Z" transform="translate(-73.319 -2.335)" fill="#3f282d"/>
            <path id="Trazado_1091670" data-name="Trazado 1091670" d="M180.27,5.346,168.585,40.289l14.118-.076,11.635-34.8Z" transform="translate(-75.514 -2.395)" fill="#593942"/>
            <path id="Trazado_1091671" data-name="Trazado 1091671" d="M222.816,5.563l-11.6,34.7,10.579-.057L233.358,5.616Z" transform="translate(-94.609 -2.492)" fill="#593942"/>
            <path id="Trazado_1091672" data-name="Trazado 1091672" d="M210.807,73.715H197.715l-.248,1.054h13.6Z" transform="translate(-88.451 -33.019)" fill="#3f282d"/>
            <path id="Trazado_1091673" data-name="Trazado 1091673" d="M213.957,8.872l-46.241-.23,1.7,31.221,43.818-.23Z" transform="translate(-75.125 -3.871)" fill="#2d1c20"/>
            <path id="Trazado_1091674" data-name="Trazado 1091674" d="M213.815,9.8,169.1,9.578l1.644,30.187,42.368-.222Z" transform="translate(-75.747 -4.29)" fill="#65b0c1"/>
            <path id="Trazado_1091675" data-name="Trazado 1091675" d="M181.534,10.243l-8.923,26.683.153,2.823,12.723-.067,9.822-29.371Z" transform="translate(-77.318 -4.588)" fill="#77cad8"/>
            <path id="Trazado_1091676" data-name="Trazado 1091676" d="M222.425,10.45l-9.79,29.277,10.358-.055L232.748,10.5Z" transform="translate(-95.246 -4.681)" fill="#77cad8"/>
            <path id="Trazado_1091677" data-name="Trazado 1091677" d="M210.636,32.606H196.374l.012,4.259h14.262Z" transform="translate(-87.962 -14.605)" fill="#c4f5f7"/>
            <path id="Trazado_1091678" data-name="Trazado 1091678" d="M198.915,58.674h-1.807l0,1.872h1.807Z" transform="translate(-88.291 -26.282)" fill="#c4f5f7"/>
            <path id="Trazado_1091679" data-name="Trazado 1091679" d="M204.409,58.674H202.6l0,1.872h1.807Z" transform="translate(-90.752 -26.282)" fill="#c4f5f7"/>
            <path id="Trazado_1091680" data-name="Trazado 1091680" d="M209.9,58.674H208.1l0,1.872h1.807Z" transform="translate(-93.213 -26.282)" fill="#c4f5f7"/>
            <path id="Trazado_1091681" data-name="Trazado 1091681" d="M215.4,58.674H213.59l0,1.872H215.4Z" transform="translate(-95.674 -26.282)" fill="#c4f5f7"/>
            <path id="Trazado_1091682" data-name="Trazado 1091682" d="M220.891,58.674h-1.807l0,1.872H220.9Z" transform="translate(-98.135 -26.282)" fill="#c4f5f7"/>
            <path id="Trazado_1091683" data-name="Trazado 1091683" d="M203.373,36.029h-4.088l0,.807h4.087Z" transform="translate(-89.266 -16.139)" fill="#82afaf"/>
            <path id="Trazado_1091684" data-name="Trazado 1091684" d="M217.459,36.029h-1.71l0,.807h1.71Z" transform="translate(-96.641 -16.139)" fill="#82afaf"/>
            <path id="Trazado_1091685" data-name="Trazado 1091685" d="M209.536,36.029h-.742l0,.807h.742Z" transform="translate(-93.525 -16.139)" fill="#82afaf"/>
            <path id="Trazado_1091686" data-name="Trazado 1091686" d="M212.792,36.029h-1.379l0,.807h1.379Z" transform="translate(-94.699 -16.139)" fill="#82afaf"/>
            <path id="Trazado_1091687" data-name="Trazado 1091687" d="M211.136,74.65H193.9l-.328,1.054h17.9Z" transform="translate(-86.707 -33.438)" fill="#593942"/>
          </g>
        </g>
      </g>
    </g>
  </g>
</svg>
