<svg xmlns="http://www.w3.org/2000/svg" width="66" height="45.916" viewBox="0 0 66 45.916">
  <g id="Online_Ticket" data-name="Online Ticket" transform="translate(-3.972 -12.5)">
    <path id="Trazado_1092000" data-name="Trazado 1092000" d="M42.735,28.514a1.177,1.177,0,0,1-1.177-1.177V26.159a1.177,1.177,0,1,1,2.355,0v1.177a1.177,1.177,0,0,1-1.177,1.177Z" transform="translate(6.667 2.214)" fill="#20849e"/>
    <path id="Trazado_1092001" data-name="Trazado 1092001" d="M42.735,24.514a1.177,1.177,0,0,1-1.177-1.177V22.159a1.177,1.177,0,1,1,2.355,0v1.177a1.177,1.177,0,0,1-1.177,1.177Z" transform="translate(6.667 1.504)" fill="#20849e"/>
    <path id="Trazado_1092002" data-name="Trazado 1092002" d="M42.735,20.514a1.177,1.177,0,0,1-1.177-1.177V18.159a1.177,1.177,0,0,1,2.355,0v1.177a1.177,1.177,0,0,1-1.177,1.177Z" transform="translate(6.667 0.795)" fill="#20849e"/>
    <path id="Trazado_1092003" data-name="Trazado 1092003" d="M69.261,55.2a2.43,2.43,0,0,0,0-3.434l-4.27-4.27,3.02-1.17a2.429,2.429,0,0,0-.024-4.538l-.528-.2a3.752,3.752,0,0,0,.142-.972V33.037a1.3,1.3,0,0,0-1.267-1.3,3.314,3.314,0,0,1-.013-6.622,1.306,1.306,0,0,0,1.28-1.3V16.243A3.734,3.734,0,0,0,63.885,12.5H7.687a3.733,3.733,0,0,0-3.715,3.743V23.82a1.3,1.3,0,0,0,1.266,1.3,3.314,3.314,0,0,1,.013,6.622,1.306,1.306,0,0,0-1.279,1.3v7.577a3.733,3.733,0,0,0,3.715,3.743H48.8l4.543,12.077A2.41,2.41,0,0,0,55.6,58.007h.013a2.412,2.412,0,0,0,2.264-1.551l1.172-3.019,4.269,4.269a2.434,2.434,0,0,0,3.436,0ZM7.687,42a1.376,1.376,0,0,1-1.36-1.388V33.973a5.681,5.681,0,0,0,0-11.087V16.243a1.376,1.376,0,0,1,1.36-1.388H48.225v.567a1.177,1.177,0,1,0,2.355,0v-.567H63.885a1.376,1.376,0,0,1,1.361,1.388v6.641a5.68,5.68,0,0,0,0,11.087v6.643a1.1,1.1,0,0,1-.025.13l-15-5.642a1.17,1.17,0,0,0,.359-.842V33.082a1.177,1.177,0,0,0-2.355,0V34.26a1.174,1.174,0,0,0,.094.461,2.407,2.407,0,0,0-1.926,3.247L47.911,42Zm57.3,14.039-5.547-5.547a1.177,1.177,0,0,0-.832-.345,1.16,1.16,0,0,0-.243.025,1.176,1.176,0,0,0-.855.727l-1.825,4.7h-.139L50.7,42.724l0,0-2.1-5.581.1-.1L65.51,43.368l.014.005,1.634.614,0,.139-4.7,1.824a1.177,1.177,0,0,0-.407,1.93L67.6,53.534Z" transform="translate(0 0)" fill="#20849e"/>
    <path id="Trazado_1092004" data-name="Trazado 1092004" d="M22.359,36.364a1.272,1.272,0,0,1-1.276-.027L21,36.289a1.294,1.294,0,0,1-.528-1.264L21.294,30,17.826,26.45a1.272,1.272,0,0,1-.325-1.19l.026-.106a1.277,1.277,0,0,1,1.021-.873l4.745-.724,2.089-4.448a1.445,1.445,0,0,1,1.21-.827,1.284,1.284,0,0,1,1.152.739l2.131,4.536,4.645.709a1.445,1.445,0,0,1,1.12.884,1.285,1.285,0,0,1-.3,1.307L31.874,30l.82,5.023a1.3,1.3,0,0,1-.529,1.262,1.272,1.272,0,0,1-1.271.114l-.084-.039-4.227-2.335ZM20.965,26.3l2.818,2.886-.084.7-.546,3.354,3.365-1.859.657.29,2.84,1.568-.643-3.943.414-.52L32.2,26.3l-3.854-.589L28,25.1l-1.414-3.01-1.665,3.544-.689.162Z" transform="translate(2.393 1.026)" fill="#20849e"/>
  </g>
</svg>
